<?xml version="1.0" standalone="no"?>
<svg viewBox="0 0 6.658 6.658"
     xmlns="http://www.w3.org/2000/svg" version="1.1">

  <title>Example triangle01- simple example of a 'path'</title>
  <desc>A path that draws a triangle</desc>            <path d="M 2.730 5.566 L 2.723 5.612 L 2.710 5.626 L 2.690 5.626 L 2.676 5.612 L 2.650 5.606 L 2.643 5.626 L 2.670 5.632 L 2.690 5.646 L 2.723 5.646 L 2.730 5.639 L 2.743 5.639 L 2.743 5.579 z" fill="none" stroke="black" stroke-width="0.017" />            <path d="M 2.503 5.506 L 2.530 5.519 L 2.517 5.539 L 2.503 5.533 L 2.483 5.519 L 2.497 5.533 L 2.510 5.539 L 2.530 5.539 L 2.537 5.519 L 2.523 5.513 z" fill="none" stroke="black" stroke-width="0.017" />            <path d="M 2.730 5.446 L 2.716 5.453 L 2.670 5.506 L 2.656 5.519 L 2.643 5.519 L 2.616 5.519 L 2.596 5.533 L 2.563 5.526 L 2.557 5.539 L 2.563 5.546 L 2.543 5.559 L 2.557 5.559 L 2.570 5.546 L 2.583 5.559 L 2.570 5.572 L 2.543 5.572 L 2.570 5.579 L 2.590 5.552 L 2.636 5.559 L 2.650 5.552 L 2.656 5.539 L 2.670 5.533 L 2.683 5.533 L 2.690 5.513 L 2.723 5.499 L 2.743 5.473 L 2.756 5.473 L 2.770 5.466 L 2.770 5.453 z" fill="none" stroke="black" stroke-width="0.017" />            <path d="M 1.618 5.386 L 1.611 5.393 L 1.558 5.393 L 1.525 5.406 L 1.491 5.406 L 1.525 5.406 L 1.558 5.393 L 1.611 5.393 L 1.618 5.386 L 1.658 5.386 z" fill="none" stroke="black" stroke-width="0.017" />            <path d="M 2.543 5.379 L 2.543 5.419 L 2.550 5.439 L 2.570 5.459 L 2.583 5.459 L 2.583 5.446 L 2.570 5.433 L 2.557 5.399 L 2.557 5.379 L 2.557 5.406 L 2.570 5.426 L 2.557 5.439 L 2.550 5.426 L 2.543 5.419 z" fill="none" stroke="black" stroke-width="0.017" />            <path d="M 2.470 5.373 L 2.470 5.406 L 2.503 5.433 L 2.517 5.446 L 2.517 5.459 L 2.517 5.446 L 2.510 5.433 L 2.470 5.399 z" fill="none" stroke="black" stroke-width="0.017" />            <path d="M 1.518 5.346 L 1.511 5.353 L 1.485 5.353 L 1.511 5.353 L 1.518 5.346 L 1.585 5.339 L 1.618 5.346 L 1.585 5.339 z" fill="none" stroke="black" stroke-width="0.017" />            <path d="M 1.704 5.206 L 1.704 5.240 L 1.718 5.253 L 1.731 5.260 L 1.884 5.260 L 1.937 5.246 L 2.004 5.240 L 2.024 5.240 L 2.057 5.246 L 2.064 5.240 L 2.097 5.240 L 2.137 5.253 L 2.164 5.253 L 2.204 5.246 L 2.230 5.273 L 2.237 5.299 L 2.230 5.346 L 2.250 5.366 L 2.264 5.373 L 2.337 5.366 L 2.357 5.373 L 2.363 5.386 L 2.363 5.413 L 2.363 5.379 L 2.357 5.366 L 2.337 5.366 L 2.270 5.373 L 2.257 5.366 L 2.230 5.339 L 2.237 5.293 L 2.230 5.266 L 2.210 5.246 L 2.164 5.253 L 2.137 5.253 L 2.097 5.240 L 2.064 5.240 L 2.057 5.246 L 2.024 5.240 L 2.004 5.240 L 1.944 5.253 L 1.931 5.246 L 1.877 5.260 L 1.744 5.260 L 1.731 5.260 L 1.704 5.233 L 1.711 5.206 L 1.718 5.226 L 1.731 5.240 L 1.764 5.246 L 1.871 5.246 L 1.877 5.240 L 1.911 5.233 L 1.897 5.240 L 1.864 5.246 L 1.771 5.246 L 1.738 5.240 L 1.724 5.226 L 1.724 5.220 z" fill="none" stroke="black" stroke-width="0.017" />            <path d="M 2.710 5.113 L 2.716 5.126 L 2.723 5.146 L 2.716 5.213 L 2.696 5.213 L 2.703 5.246 L 2.676 5.253 L 2.676 5.280 L 2.683 5.299 L 2.696 5.313 L 2.703 5.326 L 2.703 5.366 L 2.710 5.379 L 2.730 5.386 L 2.736 5.373 L 2.716 5.346 L 2.716 5.306 L 2.716 5.293 L 2.710 5.266 L 2.723 5.260 L 2.796 5.260 L 2.830 5.273 L 2.843 5.266 L 2.883 5.266 L 2.923 5.266 L 2.929 5.286 L 2.943 5.293 L 2.956 5.299 L 2.989 5.299 L 3.009 5.286 L 3.082 5.286 L 3.089 5.273 L 3.089 5.260 L 3.076 5.253 L 3.049 5.253 L 2.989 5.260 L 2.976 5.253 L 2.956 5.233 L 2.949 5.246 L 2.876 5.246 L 2.763 5.240 L 2.736 5.233 L 2.723 5.220 L 2.723 5.146 L 2.716 5.140 z" fill="none" stroke="black" stroke-width="0.017" />            <path d="M 1.957 5.100 L 1.951 5.193 L 1.931 5.193 L 1.924 5.186 L 1.904 5.193 L 1.931 5.193 L 1.951 5.206 L 1.951 5.193 L 1.957 5.186 L 1.964 5.100 L 1.977 5.140 L 1.964 5.200 L 1.977 5.220 L 2.011 5.213 L 2.037 5.226 L 2.051 5.226 L 2.110 5.220 L 2.230 5.226 L 2.250 5.246 L 2.257 5.346 L 2.264 5.346 L 2.277 5.353 L 2.343 5.353 L 2.370 5.353 L 2.377 5.366 L 2.377 5.413 L 2.377 5.366 L 2.370 5.359 L 2.370 5.346 L 2.270 5.353 L 2.250 5.333 L 2.250 5.246 L 2.244 5.233 L 2.230 5.226 L 2.110 5.220 L 2.051 5.226 L 2.011 5.213 L 1.971 5.206 L 1.977 5.140 L 1.977 5.126 L 1.971 5.100 z" fill="none" stroke="black" stroke-width="0.017" />            <path d="M 1.531 4.933 L 1.531 4.953 L 1.558 4.987 L 1.558 5.000 L 1.591 5.040 L 1.604 5.060 L 1.591 5.033 L 1.571 5.013 L 1.558 4.993 L 1.545 4.960 L 1.545 4.933 L 1.558 4.947 L 1.571 4.980 L 1.598 5.007 L 1.604 5.027 L 1.624 5.053 L 1.611 5.086 L 1.624 5.100 L 1.638 5.140 L 1.658 5.153 L 1.664 5.173 L 1.658 5.153 L 1.671 5.140 L 1.684 5.153 L 1.671 5.140 L 1.671 5.126 L 1.664 5.113 L 1.651 5.106 L 1.664 5.120 L 1.658 5.146 L 1.644 5.140 L 1.631 5.126 L 1.631 5.113 L 1.638 5.066 L 1.631 5.053 L 1.604 5.027 L 1.598 5.000 L 1.585 4.987 L 1.571 4.973 L 1.565 4.953 L 1.551 4.933 z" fill="none" stroke="black" stroke-width="0.017" />            <path d="M 2.337 4.920 L 2.337 4.947 L 2.324 4.960 L 2.297 4.940 L 2.277 4.940 L 2.230 4.947 L 2.210 4.933 L 2.224 4.947 L 2.277 4.940 L 2.297 4.940 L 2.310 4.953 L 2.324 4.960 L 2.363 4.947 L 2.383 4.953 L 2.397 4.967 L 2.410 4.947 L 2.410 4.927 L 2.390 4.920 z" fill="none" stroke="black" stroke-width="0.017" />            <path d="M 2.703 4.893 L 2.703 4.933 L 2.690 4.980 L 2.670 4.973 L 2.670 4.960 L 2.683 4.947 L 2.670 4.960 L 2.676 4.980 L 2.656 4.993 L 2.643 4.993 L 2.643 5.013 L 2.656 5.013 L 2.650 4.993 L 2.663 4.987 L 2.670 5.007 L 2.696 5.007 L 2.696 5.020 L 2.683 5.020 L 2.696 5.033 L 2.703 5.066 L 2.703 5.093 L 2.690 5.100 L 2.690 5.133 L 2.690 5.146 L 2.703 5.160 L 2.703 5.180 L 2.703 5.153 L 2.690 5.140 L 2.690 5.106 L 2.710 5.086 L 2.723 5.093 L 2.716 5.060 L 2.723 5.046 L 2.716 4.940 L 2.703 4.927 z" fill="none" stroke="black" stroke-width="0.017" />            <path d="M 1.991 4.880 L 1.991 4.900 L 1.991 4.953 L 1.991 4.973 L 2.011 4.973 L 2.011 4.947 L 2.017 4.933 L 2.031 4.920 L 2.077 4.907 L 2.071 4.920 L 2.017 4.927 L 1.991 4.967 L 1.991 4.953 L 1.991 4.900 L 1.997 4.880 L 2.017 4.880 z" fill="none" stroke="black" stroke-width="0.017" />            <path d="M 2.483 4.853 L 2.477 4.880 L 2.457 4.873 L 2.463 4.893 L 2.477 4.907 L 2.470 4.920 L 2.477 4.907 L 2.490 4.940 L 2.483 4.927 L 2.483 4.907 L 2.463 4.893 L 2.483 4.880 z" fill="none" stroke="black" stroke-width="0.017" />            <path d="M 2.876 4.807 L 2.876 4.827 L 2.856 4.880 L 2.849 4.907 L 2.843 4.987 L 2.849 4.907 L 2.869 4.833 L 2.876 4.827 L 2.883 4.813 L 2.889 4.840 L 2.883 4.847 L 2.869 4.913 L 2.869 4.960 L 2.863 4.967 L 2.863 5.007 L 2.863 4.967 L 2.869 4.960 L 2.869 4.913 L 2.876 4.880 L 2.889 4.847 L 2.889 4.807 z" fill="none" stroke="black" stroke-width="0.017" />            <path d="M 2.363 4.754 L 2.357 4.767 L 2.350 4.774 L 2.350 4.813 L 2.363 4.833 L 2.377 4.813 L 2.363 4.820 L 2.350 4.807 L 2.350 4.774 z" fill="none" stroke="black" stroke-width="0.017" />            <path d="M 2.024 4.674 L 2.017 4.687 L 2.031 4.720 L 2.051 4.714 L 2.037 4.700 L 2.044 4.680 L 2.057 4.680 L 2.037 4.680 L 2.044 4.707 L 2.031 4.720 L 2.017 4.707 L 2.017 4.687 L 2.024 4.674 L 2.057 4.667 z" fill="none" stroke="black" stroke-width="0.017" />            <path d="M 2.543 4.614 L 2.550 4.627 L 2.550 4.680 L 2.557 4.707 L 2.570 4.720 L 2.557 4.747 L 2.557 4.760 L 2.543 4.794 L 2.543 4.714 L 2.530 4.680 L 2.530 4.634 L 2.530 4.680 L 2.543 4.714 L 2.557 4.807 L 2.530 4.833 L 2.530 4.860 L 2.537 4.827 L 2.550 4.820 L 2.563 4.800 L 2.557 4.760 L 2.570 4.720 L 2.563 4.707 L 2.550 4.680 L 2.550 4.627 z" fill="none" stroke="black" stroke-width="0.017" />            <path d="M 2.237 4.574 L 2.237 4.654 L 2.210 4.654 L 2.224 4.640 L 2.210 4.620 L 2.217 4.587 L 2.217 4.614 L 2.204 4.634 L 2.217 4.647 L 2.210 4.667 L 2.224 4.667 L 2.237 4.660 z" fill="none" stroke="black" stroke-width="0.017" />            <path d="M 2.190 4.547 L 2.190 4.574 L 2.204 4.607 L 2.197 4.594 L 2.197 4.574 L 2.190 4.567 L 2.197 4.547 L 2.210 4.567 L 2.204 4.547 z" fill="none" stroke="black" stroke-width="0.017" />            <path d="M 2.530 4.501 L 2.523 4.514 L 2.517 4.534 L 2.503 4.527 L 2.503 4.587 L 2.503 4.607 L 2.497 4.620 L 2.483 4.634 L 2.477 4.634 L 2.470 4.660 L 2.470 4.647 L 2.497 4.640 L 2.497 4.727 L 2.477 4.747 L 2.470 4.813 L 2.463 4.827 L 2.443 4.847 L 2.417 4.847 L 2.357 4.853 L 2.317 4.847 L 2.304 4.847 L 2.257 4.847 L 2.230 4.853 L 2.190 4.847 L 2.170 4.833 L 2.110 4.833 L 2.084 4.827 L 2.064 4.813 L 2.031 4.820 L 2.017 4.807 L 2.017 4.794 L 2.017 4.774 L 2.024 4.760 L 2.031 4.794 L 2.037 4.780 L 2.051 4.787 L 2.057 4.800 L 2.057 4.787 L 2.037 4.780 L 2.031 4.774 L 2.024 4.760 L 2.044 4.747 L 2.044 4.760 L 2.044 4.740 L 2.031 4.734 L 2.011 4.774 L 2.011 4.787 L 2.017 4.794 L 2.017 4.813 L 2.031 4.827 L 2.051 4.833 L 2.077 4.840 L 2.097 4.867 L 2.117 4.867 L 2.137 4.873 L 2.150 4.880 L 2.144 4.860 L 2.164 4.853 L 2.170 4.840 L 2.184 4.840 L 2.230 4.853 L 2.250 4.847 L 2.310 4.847 L 2.310 4.873 L 2.304 4.867 L 2.237 4.873 L 2.210 4.867 L 2.204 4.860 L 2.190 4.860 L 2.204 4.867 L 2.237 4.873 L 2.304 4.867 L 2.317 4.867 L 2.330 4.880 L 2.324 4.853 L 2.363 4.853 L 2.410 4.840 L 2.443 4.867 L 2.430 4.860 L 2.363 4.867 L 2.357 4.873 L 2.343 4.873 L 2.357 4.873 L 2.363 4.867 L 2.423 4.873 L 2.423 4.960 L 2.417 4.960 L 2.410 4.967 L 2.403 4.980 L 2.410 5.040 L 2.403 5.027 L 2.403 4.980 L 2.423 4.960 L 2.437 4.980 L 2.450 4.980 L 2.450 4.960 L 2.437 4.873 L 2.450 4.860 L 2.470 4.853 L 2.470 4.847 L 2.490 4.820 L 2.497 4.833 L 2.503 4.840 L 2.497 4.887 L 2.497 4.900 L 2.503 4.940 L 2.497 4.893 L 2.503 4.833 L 2.490 4.820 L 2.490 4.780 L 2.497 4.767 L 2.510 4.754 L 2.517 4.740 L 2.510 4.680 L 2.510 4.660 L 2.517 4.620 L 2.537 4.600 L 2.543 4.580 L 2.537 4.541 L 2.543 4.534 L 2.543 4.501 z" fill="none" stroke="black" stroke-width="0.017" />            <path d="M 2.017 4.587 L 2.031 4.527 L 2.044 4.541 L 2.051 4.560 L 2.037 4.567 L 2.031 4.587 L 2.044 4.587 L 2.044 4.607 L 2.037 4.574 L 2.051 4.560 L 2.044 4.541 L 2.037 4.527 L 2.017 4.514 L 2.017 4.501 z" fill="none" stroke="black" stroke-width="0.017" />            <path d="M 2.230 4.407 L 2.237 4.421 L 2.244 4.447 L 2.244 4.481 L 2.250 4.494 L 2.270 4.521 L 2.277 4.554 L 2.304 4.574 L 2.310 4.594 L 2.304 4.674 L 2.310 4.687 L 2.304 4.674 L 2.310 4.587 L 2.304 4.567 L 2.290 4.554 L 2.284 4.554 L 2.270 4.541 L 2.270 4.514 L 2.250 4.494 L 2.244 4.481 L 2.244 4.447 L 2.237 4.441 z" fill="none" stroke="black" stroke-width="0.017" />            <path d="M 2.217 4.407 L 2.217 4.447 L 2.224 4.454 L 2.224 4.494 L 2.250 4.541 L 2.257 4.594 L 2.257 4.607 L 2.257 4.594 L 2.264 4.567 L 2.270 4.574 L 2.277 4.567 L 2.290 4.587 L 2.290 4.627 L 2.297 4.634 L 2.297 4.660 L 2.297 4.627 L 2.290 4.620 L 2.290 4.587 L 2.284 4.574 L 2.250 4.560 L 2.250 4.541 L 2.244 4.521 L 2.224 4.494 L 2.224 4.481 L 2.217 4.447 z" fill="none" stroke="black" stroke-width="0.017" />            <path d="M 2.091 4.394 L 2.064 4.407 L 2.064 4.427 L 2.051 4.441 L 2.044 4.441 L 2.031 4.467 L 2.031 4.481 L 2.037 4.487 L 2.037 4.501 L 2.037 4.487 L 2.031 4.481 L 2.031 4.467 L 2.037 4.461 L 2.044 4.447 L 2.057 4.461 L 2.051 4.521 L 2.051 4.474 L 2.064 4.461 L 2.044 4.447 L 2.064 4.434 L 2.064 4.414 L 2.091 4.407 L 2.071 4.487 L 2.084 4.487 L 2.084 4.421 L 2.097 4.407 L 2.110 4.407 L 2.084 4.401 L 2.110 4.394 z" fill="none" stroke="black" stroke-width="0.017" />            <path d="M 2.244 4.354 L 2.284 4.354 L 2.297 4.367 L 2.317 4.374 L 2.343 4.394 L 2.324 4.387 L 2.317 4.394 L 2.277 4.367 L 2.244 4.367 L 2.270 4.367 L 2.297 4.387 L 2.317 4.394 L 2.350 4.394 L 2.350 4.374 L 2.317 4.374 L 2.304 4.367 L 2.290 4.354 z" fill="none" stroke="black" stroke-width="0.017" />            <path d="M 1.365 4.354 L 1.365 4.407 L 1.371 4.414 L 1.378 4.481 L 1.378 4.507 L 1.365 4.620 L 1.371 4.720 L 1.358 5.046 L 1.358 5.173 L 1.365 5.246 L 1.352 5.280 L 1.338 5.286 L 1.352 5.306 L 1.371 5.293 L 1.378 5.280 L 1.385 5.260 L 1.385 5.220 L 1.398 5.200 L 1.398 5.180 L 1.378 5.153 L 1.378 5.053 L 1.391 4.734 L 1.391 4.720 L 1.385 4.674 L 1.398 4.534 L 1.398 4.467 L 1.385 4.427 L 1.385 4.347 z" fill="none" stroke="black" stroke-width="0.017" />            <path d="M 2.710 4.334 L 2.703 4.347 L 2.703 4.387 L 2.690 4.401 L 2.690 4.427 L 2.703 4.454 L 2.710 4.554 L 2.710 4.567 L 2.690 4.587 L 2.696 4.600 L 2.696 4.587 L 2.703 4.574 L 2.716 4.587 L 2.716 4.600 L 2.696 4.620 L 2.716 4.620 L 2.703 4.754 L 2.716 4.760 L 2.710 4.853 L 2.710 4.873 L 2.723 4.887 L 2.723 4.907 L 2.723 4.920 L 2.723 4.907 L 2.723 4.887 L 2.710 4.860 L 2.710 4.754 L 2.716 4.600 L 2.716 4.587 L 2.703 4.547 L 2.703 4.454 L 2.690 4.421 L 2.703 4.387 L 2.703 4.347 z" fill="none" stroke="black" stroke-width="0.017" />            <path d="M 2.736 4.074 L 2.743 4.128 L 2.730 4.141 L 2.723 4.128 L 2.710 4.161 L 2.710 4.174 L 2.716 4.181 L 2.716 4.201 L 2.716 4.181 L 2.710 4.174 L 2.710 4.161 L 2.723 4.161 L 2.736 4.148 L 2.743 4.168 L 2.730 4.248 L 2.736 4.301 L 2.736 4.314 L 2.723 4.334 L 2.736 4.394 L 2.730 4.381 L 2.736 4.314 L 2.736 4.294 L 2.730 4.248 L 2.743 4.168 L 2.743 4.128 z" fill="none" stroke="black" stroke-width="0.017" />            <path d="M 1.864 4.008 L 1.864 4.021 L 1.877 4.028 L 1.891 4.048 L 1.871 4.081 L 1.851 4.088 L 1.851 4.148 L 1.831 4.188 L 1.811 4.208 L 1.778 4.221 L 1.758 4.234 L 1.764 4.248 L 1.784 4.248 L 1.811 4.228 L 1.824 4.221 L 1.838 4.228 L 1.851 4.208 L 1.871 4.168 L 1.877 4.148 L 1.877 4.121 L 1.891 4.108 L 1.911 4.101 L 1.924 4.088 L 1.924 4.074 L 1.944 4.055 L 1.944 4.015 L 1.924 4.015 L 1.911 4.035 L 1.884 4.008 z" fill="none" stroke="black" stroke-width="0.017" />            <path d="M 2.816 3.788 L 2.796 3.795 L 2.756 3.795 L 2.743 3.808 L 2.736 3.828 L 2.730 3.861 L 2.736 3.895 L 2.716 3.941 L 2.716 3.988 L 2.716 3.941 L 2.730 3.908 L 2.743 3.895 L 2.750 3.928 L 2.736 3.941 L 2.736 4.021 L 2.743 4.041 L 2.756 4.061 L 2.756 4.301 L 2.770 4.314 L 2.776 4.327 L 2.770 4.347 L 2.776 4.367 L 2.796 4.401 L 2.790 4.421 L 2.776 4.401 L 2.770 4.381 L 2.763 4.367 L 2.750 4.361 L 2.750 4.394 L 2.756 4.367 L 2.770 4.381 L 2.783 4.421 L 2.796 4.421 L 2.796 4.394 L 2.770 4.347 L 2.776 4.327 L 2.756 4.294 L 2.756 4.055 L 2.743 4.041 L 2.736 4.021 L 2.736 3.948 L 2.750 3.935 L 2.750 3.875 L 2.750 3.848 L 2.756 3.835 L 2.776 3.815 L 2.803 3.815 L 2.836 3.795 L 2.830 3.782 z" fill="none" stroke="black" stroke-width="0.017" />            <path d="M 1.704 3.688 L 1.671 3.702 L 1.631 3.735 L 1.618 3.748 L 1.618 3.768 L 1.644 3.768 L 1.638 3.782 L 1.651 3.768 L 1.671 3.775 L 1.651 3.795 L 1.638 3.795 L 1.658 3.795 L 1.671 3.782 L 1.671 3.775 L 1.691 3.755 L 1.704 3.768 L 1.718 3.768 L 1.731 3.762 L 1.751 3.782 L 1.784 3.782 L 1.791 3.788 L 1.818 3.788 L 1.884 3.762 L 1.904 3.782 L 1.911 3.795 L 1.911 3.808 L 1.917 3.821 L 1.951 3.855 L 1.951 3.888 L 1.924 3.915 L 1.897 3.928 L 1.911 3.941 L 1.924 3.915 L 1.931 3.928 L 1.957 3.941 L 1.931 3.961 L 1.931 3.948 L 1.924 3.961 L 1.944 3.961 L 1.957 3.948 L 1.964 3.935 L 1.964 3.901 L 1.977 3.868 L 1.971 3.795 L 1.964 3.782 L 1.951 3.768 L 1.937 3.762 L 1.924 3.762 L 1.891 3.722 L 1.877 3.722 L 1.877 3.742 L 1.864 3.728 L 1.831 3.715 L 1.824 3.722 L 1.804 3.708 L 1.778 3.708 L 1.758 3.695 L 1.738 3.688 z" fill="none" stroke="black" stroke-width="0.017" />            <path d="M 1.398 3.682 L 1.385 3.695 L 1.378 3.708 L 1.371 3.742 L 1.358 3.835 L 1.352 3.868 L 1.338 3.895 L 1.338 3.941 L 1.325 3.948 L 1.338 3.968 L 1.338 3.941 L 1.352 3.955 L 1.352 3.968 L 1.365 3.955 L 1.391 3.961 L 1.425 3.948 L 1.411 3.955 L 1.411 3.935 L 1.425 3.935 L 1.405 3.941 L 1.378 3.935 L 1.365 3.921 L 1.371 3.868 L 1.385 3.841 L 1.385 3.815 L 1.405 3.768 L 1.411 3.742 L 1.418 3.708 L 1.418 3.682 z" fill="none" stroke="black" stroke-width="0.017" />            <path d="M 1.405 3.628 L 1.405 3.642 L 1.398 3.648 L 1.398 3.668 L 1.398 3.655 L 1.405 3.648 L 1.425 3.635 L 1.418 3.668 L 1.425 3.628 z" fill="none" stroke="black" stroke-width="0.017" />            <path d="M 3.322 3.588 L 3.322 3.608 L 3.316 3.615 L 3.322 3.648 L 3.316 3.635 L 3.316 3.622 L 3.322 3.615 L 3.329 3.588 L 3.335 3.642 L 3.335 3.588 z" fill="none" stroke="black" stroke-width="0.017" />            <path d="M 1.545 3.582 L 1.518 3.615 L 1.511 3.642 L 1.465 3.642 L 1.518 3.635 L 1.525 3.648 L 1.545 3.648 L 1.525 3.642 L 1.525 3.635 L 1.518 3.622 L 1.558 3.582 z" fill="none" stroke="black" stroke-width="0.017" />            <path d="M 2.723 3.389 L 2.716 3.422 L 2.730 3.455 L 2.716 3.475 L 2.716 3.489 L 2.716 3.535 L 2.723 3.588 L 2.710 3.662 L 2.716 3.715 L 2.716 3.802 L 2.716 3.841 L 2.703 3.875 L 2.710 3.915 L 2.703 4.081 L 2.690 4.161 L 2.690 4.174 L 2.703 4.194 L 2.696 4.208 L 2.703 4.188 L 2.690 4.174 L 2.703 4.081 L 2.710 3.915 L 2.703 3.875 L 2.716 3.841 L 2.716 3.802 L 2.716 3.715 L 2.710 3.662 L 2.723 3.588 L 2.716 3.535 L 2.716 3.489 L 2.730 3.455 L 2.716 3.422 z" fill="none" stroke="black" stroke-width="0.017" />            <path d="M 3.063 3.289 L 3.076 3.296 L 3.096 3.296 L 3.202 3.296 L 3.242 3.296 L 3.256 3.296 L 3.289 3.289 L 3.309 3.302 L 3.369 3.296 L 3.316 3.302 L 3.302 3.289 L 3.236 3.296 L 3.196 3.296 L 3.096 3.296 L 3.076 3.296 z" fill="none" stroke="black" stroke-width="0.017" />            <path d="M 2.743 3.289 L 2.736 3.302 L 2.730 3.349 L 2.723 3.355 L 2.723 3.375 L 2.723 3.355 L 2.730 3.349 L 2.736 3.302 L 2.750 3.289 L 2.856 3.296 L 2.869 3.289 z" fill="none" stroke="black" stroke-width="0.017" />            <path d="M 3.349 3.276 L 3.342 3.282 L 3.329 3.282 L 3.342 3.289 L 3.349 3.276 L 3.362 3.276 L 3.402 3.276 L 3.415 3.276 L 3.475 3.282 L 3.482 3.296 L 3.608 3.296 L 3.535 3.296 L 3.489 3.296 L 3.482 3.282 L 3.415 3.276 L 3.402 3.276 L 3.362 3.276 z" fill="none" stroke="black" stroke-width="0.017" />            <path d="M 1.318 3.082 L 1.298 3.109 L 1.305 3.156 L 1.318 3.189 L 1.318 3.229 L 1.338 3.262 L 1.338 3.282 L 1.325 3.296 L 1.325 3.309 L 1.312 3.322 L 1.312 3.335 L 1.318 3.322 L 1.325 3.302 L 1.338 3.289 L 1.338 3.282 L 1.358 3.276 L 1.558 3.282 L 1.571 3.289 L 1.585 3.302 L 1.591 3.322 L 1.591 3.375 L 1.585 3.568 L 1.571 3.582 L 1.571 3.595 L 1.551 3.615 L 1.565 3.642 L 1.578 3.628 L 1.585 3.608 L 1.604 3.588 L 1.611 3.515 L 1.604 3.469 L 1.604 3.449 L 1.604 3.316 L 1.611 3.289 L 1.618 3.289 L 1.631 3.276 L 1.618 3.262 L 1.591 3.276 L 1.571 3.262 L 1.345 3.262 L 1.332 3.249 L 1.318 3.229 L 1.318 3.189 L 1.305 3.156 L 1.298 3.109 z" fill="none" stroke="black" stroke-width="0.017" />            <path d="M 1.258 3.069 L 1.258 3.082 L 1.278 3.102 L 1.285 3.122 L 1.292 3.216 L 1.298 3.249 L 1.318 3.276 L 1.312 3.302 L 1.312 3.282 L 1.318 3.276 L 1.318 3.262 L 1.298 3.242 L 1.292 3.216 L 1.285 3.169 L 1.278 3.116 L 1.285 3.089 z" fill="none" stroke="black" stroke-width="0.017" />            <path d="M 1.618 3.023 L 1.498 3.029 L 1.491 3.036 L 1.418 3.036 L 1.485 3.043 L 1.471 3.056 L 1.438 3.049 L 1.431 3.056 L 1.411 3.049 L 1.431 3.056 L 1.438 3.049 L 1.471 3.056 L 1.604 3.043 L 1.618 3.043 L 1.644 3.049 L 1.758 3.043 L 1.791 3.076 L 1.791 3.089 L 1.804 3.102 L 1.811 3.129 L 1.811 3.156 L 1.811 3.129 L 1.804 3.102 L 1.784 3.063 L 1.764 3.043 L 1.644 3.049 L 1.611 3.049 L 1.604 3.036 L 1.618 3.023 L 1.644 3.023 L 1.764 3.023 L 1.804 3.063 L 1.824 3.096 L 1.831 3.129 L 1.831 3.196 L 1.824 3.209 L 1.798 3.209 L 1.811 3.189 L 1.811 3.169 L 1.804 3.196 L 1.791 3.176 L 1.798 3.162 L 1.791 3.136 L 1.798 3.162 L 1.804 3.196 L 1.791 3.209 L 1.778 3.209 L 1.764 3.216 L 1.731 3.249 L 1.711 3.249 L 1.711 3.269 L 1.731 3.269 L 1.758 3.256 L 1.758 3.249 L 1.771 3.242 L 1.784 3.256 L 1.798 3.256 L 1.844 3.249 L 1.857 3.262 L 1.857 3.282 L 1.857 3.269 L 1.884 3.262 L 1.871 3.282 L 1.877 3.269 L 1.897 3.249 L 1.884 3.236 L 1.871 3.236 L 1.831 3.229 L 1.871 3.242 L 1.884 3.236 L 1.897 3.249 L 1.884 3.262 L 1.857 3.262 L 1.851 3.249 L 1.818 3.229 L 1.818 3.216 L 1.831 3.196 L 1.831 3.129 L 1.824 3.089 L 1.804 3.056 L 1.771 3.023 z" fill="none" stroke="black" stroke-width="0.017" />            <path d="M 3.948 2.976 L 3.935 2.983 L 3.941 2.996 L 3.968 3.009 L 3.955 3.016 L 3.941 3.003 L 3.935 2.989 L 3.948 2.976 L 3.975 2.989 L 3.961 2.983 z" fill="none" stroke="black" stroke-width="0.017" />            <path d="M 4.194 2.936 L 4.174 2.943 L 4.168 2.969 L 4.161 2.969 L 4.141 2.983 L 4.128 2.996 L 4.148 2.983 L 4.154 2.983 L 4.174 2.963 L 4.188 3.023 L 4.188 3.069 L 4.201 3.116 L 4.208 3.236 L 4.214 3.242 L 4.214 3.289 L 4.201 3.302 L 4.161 3.309 L 4.148 3.309 L 4.121 3.289 L 4.081 3.289 L 4.068 3.276 L 4.028 3.269 L 3.995 3.262 L 3.921 3.256 L 3.821 3.262 L 3.775 3.249 L 3.755 3.256 L 3.642 3.249 L 3.542 3.256 L 3.529 3.269 L 3.335 3.262 L 2.996 3.269 L 2.976 3.276 L 2.750 3.269 L 2.743 3.276 L 2.723 3.276 L 2.710 3.296 L 2.703 3.322 L 2.696 3.375 L 2.703 3.435 L 2.703 3.469 L 2.696 3.708 L 2.683 3.848 L 2.690 3.981 L 2.683 4.074 L 2.670 4.148 L 2.670 4.334 L 2.683 4.361 L 2.670 4.394 L 2.676 4.441 L 2.670 4.467 L 2.670 4.481 L 2.670 4.567 L 2.670 4.594 L 2.683 4.620 L 2.683 4.694 L 2.696 4.707 L 2.690 4.820 L 2.696 4.827 L 2.696 4.853 L 2.696 4.827 L 2.690 4.820 L 2.696 4.707 L 2.683 4.687 L 2.683 4.620 L 2.670 4.594 L 2.670 4.567 L 2.670 4.481 L 2.670 4.467 L 2.676 4.441 L 2.670 4.394 L 2.683 4.367 L 2.690 4.347 L 2.676 4.347 L 2.670 4.334 L 2.676 4.241 L 2.670 4.188 L 2.670 4.148 L 2.683 4.074 L 2.690 3.981 L 2.683 3.848 L 2.696 3.708 L 2.703 3.469 L 2.703 3.435 L 2.696 3.375 L 2.710 3.349 L 2.703 3.322 L 2.710 3.302 L 2.723 3.289 L 2.723 3.282 L 2.750 3.269 L 2.976 3.276 L 2.996 3.269 L 3.016 3.282 L 3.009 3.302 L 2.969 3.289 L 2.963 3.302 L 2.949 3.302 L 2.923 3.289 L 2.909 3.302 L 2.883 3.302 L 2.823 3.309 L 2.816 3.322 L 2.836 3.322 L 2.883 3.302 L 2.909 3.302 L 2.929 3.289 L 2.949 3.302 L 2.963 3.302 L 3.016 3.302 L 3.023 3.269 L 3.063 3.276 L 3.335 3.262 L 3.522 3.269 L 3.535 3.262 L 3.542 3.276 L 3.549 3.256 L 3.575 3.256 L 3.582 3.269 L 3.608 3.256 L 3.642 3.249 L 3.755 3.256 L 3.782 3.249 L 3.828 3.262 L 3.841 3.262 L 3.921 3.256 L 3.948 3.269 L 3.961 3.269 L 3.988 3.282 L 3.975 3.289 L 3.941 3.289 L 3.928 3.276 L 3.888 3.282 L 3.835 3.282 L 3.841 3.302 L 3.835 3.282 L 3.868 3.276 L 3.888 3.289 L 3.895 3.302 L 3.881 3.316 L 3.868 3.309 L 3.795 3.309 L 3.828 3.302 L 3.795 3.296 L 3.808 3.282 L 3.821 3.276 L 3.788 3.282 L 3.768 3.276 L 3.722 3.269 L 3.662 3.269 L 3.642 3.282 L 3.628 3.269 L 3.635 3.276 L 3.635 3.289 L 3.662 3.296 L 3.642 3.289 L 3.655 3.276 L 3.668 3.282 L 3.682 3.296 L 3.695 3.302 L 3.728 3.316 L 3.722 3.302 L 3.735 3.289 L 3.722 3.302 L 3.708 3.289 L 3.695 3.302 L 3.688 3.282 L 3.668 3.282 L 3.655 3.276 L 3.722 3.269 L 3.768 3.276 L 3.782 3.296 L 3.775 3.322 L 3.788 3.322 L 3.868 3.309 L 3.895 3.322 L 3.921 3.322 L 3.895 3.302 L 3.908 3.302 L 3.921 3.309 L 3.888 3.296 L 3.895 3.276 L 3.935 3.289 L 3.988 3.282 L 4.001 3.282 L 4.021 3.302 L 4.041 3.309 L 4.081 3.309 L 4.114 3.316 L 4.128 3.329 L 4.194 3.329 L 4.148 3.329 L 4.128 3.329 L 4.114 3.316 L 4.148 3.309 L 4.161 3.309 L 4.214 3.296 L 4.214 3.236 L 4.208 3.176 L 4.201 3.116 L 4.188 3.069 L 4.181 3.016 L 4.174 2.963 L 4.194 2.949 L 4.201 2.983 L 4.208 3.016 L 4.208 3.063 L 4.221 3.102 L 4.221 3.176 L 4.234 3.242 L 4.234 3.296 L 4.214 3.316 L 4.201 3.316 L 4.214 3.322 L 4.234 3.302 L 4.234 3.242 L 4.221 3.176 L 4.221 3.102 L 4.208 3.063 L 4.208 3.016 L 4.194 2.976 z" fill="none" stroke="black" stroke-width="0.017" />            <path d="M 1.178 2.796 L 1.165 2.803 L 1.158 2.823 L 1.152 2.843 L 1.158 2.823 L 1.165 2.810 L 1.185 2.810 L 1.178 2.843 L 1.165 2.863 L 1.158 2.889 L 1.158 2.916 L 1.165 2.883 L 1.178 2.903 L 1.172 2.936 L 1.158 2.949 L 1.138 2.949 L 1.125 2.936 L 1.118 2.916 L 1.125 2.823 L 1.132 2.836 L 1.138 2.843 L 1.145 2.929 L 1.138 2.916 L 1.138 2.843 L 1.132 2.836 L 1.132 2.823 L 1.118 2.830 L 1.118 2.923 L 1.132 2.949 L 1.172 2.943 L 1.178 2.903 L 1.178 2.889 L 1.165 2.869 L 1.178 2.856 L 1.185 2.810 z" fill="none" stroke="black" stroke-width="0.017" />            <path d="M 1.059 2.796 L 1.045 2.823 L 1.045 2.836 L 1.085 2.856 L 1.105 2.856 L 1.085 2.849 L 1.085 2.836 L 1.072 2.836 L 1.059 2.843 L 1.052 2.816 L 1.059 2.803 L 1.099 2.796 z" fill="none" stroke="black" stroke-width="0.017" />            <path d="M 0.632 2.723 L 0.626 2.743 L 0.632 2.750 L 0.632 2.763 L 0.626 2.790 L 0.639 2.803 L 0.646 2.790 L 0.652 2.763 L 0.646 2.730 L 0.652 2.763 L 0.626 2.783 L 0.626 2.770 L 0.632 2.763 L 0.632 2.750 z" fill="none" stroke="black" stroke-width="0.017" />            <path d="M 0.606 2.590 L 0.599 2.610 L 0.606 2.616 L 0.606 2.650 L 0.626 2.670 L 0.639 2.710 L 0.652 2.716 L 0.659 2.703 L 0.652 2.683 L 0.626 2.630 L 0.619 2.610 L 0.619 2.590 L 0.619 2.610 L 0.626 2.616 L 0.626 2.636 L 0.646 2.670 L 0.659 2.703 L 0.646 2.710 L 0.632 2.696 L 0.626 2.683 L 0.626 2.663 L 0.606 2.643 z" fill="none" stroke="black" stroke-width="0.017" />            <path d="M 1.118 2.557 L 1.118 2.570 L 1.132 2.583 L 1.138 2.603 L 1.138 2.663 L 1.132 2.676 L 1.138 2.596 L 1.132 2.577 z" fill="none" stroke="black" stroke-width="0.017" />            <path d="M 1.105 2.557 L 1.105 2.577 L 1.118 2.603 L 1.125 2.630 L 1.125 2.650 L 1.118 2.656 L 1.118 2.676 L 1.118 2.656 L 1.125 2.650 L 1.125 2.623 L 1.105 2.577 z" fill="none" stroke="black" stroke-width="0.017" />            <path d="M 0.666 2.463 L 0.652 2.477 L 0.652 2.497 L 0.666 2.490 L 0.672 2.490 L 0.679 2.483 L 0.679 2.477 L 0.686 2.463 z" fill="none" stroke="black" stroke-width="0.017" />            <path d="M 3.482 2.437 L 3.482 2.443 L 3.469 2.457 L 3.462 2.483 L 3.469 2.530 L 3.482 2.530 L 3.489 2.550 L 3.489 2.590 L 3.462 2.616 L 3.442 2.643 L 3.442 2.623 L 3.455 2.603 L 3.442 2.616 L 3.442 2.650 L 3.429 2.656 L 3.422 2.710 L 3.422 2.670 L 3.455 2.656 L 3.435 2.676 L 3.435 2.710 L 3.435 2.676 L 3.462 2.650 L 3.462 2.623 L 3.482 2.603 L 3.489 2.590 L 3.489 2.550 L 3.482 2.477 L 3.489 2.470 L 3.495 2.457 L 3.489 2.470 L 3.482 2.477 L 3.462 2.517 L 3.462 2.490 L 3.469 2.463 L 3.482 2.443 L 3.495 2.430 L 3.509 2.437 L 3.495 2.430 z" fill="none" stroke="black" stroke-width="0.017" />            <path d="M 3.755 2.237 L 3.762 2.284 L 3.782 2.284 L 3.802 2.304 L 3.821 2.304 L 3.835 2.297 L 3.841 2.277 L 3.861 2.244 L 3.955 2.237 L 3.861 2.237 L 3.855 2.250 L 3.841 2.284 L 3.828 2.297 L 3.808 2.304 L 3.782 2.284 L 3.768 2.284 L 3.755 2.270 z" fill="none" stroke="black" stroke-width="0.017" />            <path d="M 3.815 2.204 L 3.815 2.257 L 3.821 2.284 L 3.821 2.270 L 3.808 2.244 L 3.821 2.217 L 3.815 2.210 L 3.835 2.217 L 3.835 2.204 z" fill="none" stroke="black" stroke-width="0.017" />            <path d="M 3.855 2.197 L 3.875 2.210 L 3.888 2.224 L 3.941 2.217 L 3.948 2.224 L 3.961 2.217 L 3.941 2.217 L 3.935 2.224 L 3.895 2.224 L 3.881 2.210 L 3.868 2.210 z" fill="none" stroke="black" stroke-width="0.017" />            <path d="M 5.166 2.011 L 5.166 2.024 L 5.160 2.037 L 5.253 2.044 L 5.473 2.037 L 5.473 2.024 L 5.459 2.017 L 5.433 2.017 L 5.419 2.017 L 5.406 2.017 L 5.393 2.024 L 5.406 2.017 L 5.419 2.017 L 5.433 2.017 L 5.446 2.024 L 5.459 2.017 L 5.473 2.031 L 5.253 2.044 L 5.166 2.037 L 5.173 2.017 L 5.240 2.017 L 5.246 2.031 L 5.253 2.017 L 5.379 2.024 L 5.233 2.024 L 5.180 2.024 z" fill="none" stroke="black" stroke-width="0.017" />            <path d="M 4.414 2.011 L 4.301 2.024 L 4.281 2.024 L 4.241 2.017 L 4.214 2.031 L 4.181 2.037 L 4.174 2.057 L 4.174 2.097 L 4.181 2.104 L 4.174 2.144 L 4.188 2.250 L 4.174 2.403 L 4.174 2.430 L 4.181 2.437 L 4.181 2.457 L 4.168 2.477 L 4.181 2.490 L 4.181 2.550 L 4.188 2.557 L 4.188 2.610 L 4.174 2.616 L 4.174 2.643 L 4.188 2.650 L 4.188 2.730 L 4.201 2.723 L 4.201 2.710 L 4.208 2.703 L 4.214 2.596 L 4.201 2.537 L 4.201 2.390 L 4.214 2.343 L 4.214 2.317 L 4.214 2.250 L 4.214 2.217 L 4.201 2.197 L 4.201 2.077 L 4.214 2.051 L 4.228 2.044 L 4.248 2.071 L 4.254 2.057 L 4.268 2.044 L 4.307 2.037 L 4.387 2.031 L 4.560 2.031 L 4.767 2.031 L 4.780 2.031 L 4.900 2.031 L 5.000 2.037 L 5.020 2.031 L 5.020 2.017 L 4.980 2.011 L 4.787 2.011 L 4.754 2.011 L 4.620 2.011 L 4.560 2.017 L 4.541 2.017 L 4.494 2.011 L 4.434 2.011 z" fill="none" stroke="black" stroke-width="0.017" />            <path d="M 3.888 2.004 L 3.881 2.011 L 3.861 2.011 L 3.861 2.024 L 4.028 2.024 L 4.028 2.004 L 4.015 2.004 L 3.901 2.004 z" fill="none" stroke="black" stroke-width="0.017" />            <path d="M 1.345 1.778 L 1.345 1.851 L 1.345 1.864 L 1.358 1.891 L 1.365 1.951 L 1.352 2.024 L 1.365 2.084 L 1.365 2.157 L 1.378 2.184 L 1.378 2.230 L 1.385 2.270 L 1.391 2.277 L 1.391 2.304 L 1.385 2.310 L 1.378 2.324 L 1.391 2.330 L 1.398 2.337 L 1.391 2.370 L 1.391 2.830 L 1.391 2.949 L 1.411 2.989 L 1.411 3.023 L 1.398 3.036 L 1.391 3.036 L 1.378 3.049 L 1.371 3.023 L 1.391 3.016 L 1.391 2.989 L 1.385 3.023 L 1.365 3.016 L 1.365 2.929 L 1.378 2.783 L 1.385 2.423 L 1.385 2.410 L 1.378 2.343 L 1.358 2.324 L 1.371 2.337 L 1.378 2.350 L 1.385 2.410 L 1.378 2.783 L 1.371 2.923 L 1.365 3.029 L 1.352 3.043 L 1.325 3.049 L 1.312 3.056 L 1.305 3.063 L 1.305 3.069 L 1.285 3.069 L 1.272 3.069 L 1.285 3.076 L 1.298 3.076 L 1.318 3.056 L 1.345 3.043 L 1.365 3.036 L 1.378 3.049 L 1.365 3.063 L 1.332 3.082 L 1.345 3.082 L 1.371 3.056 L 1.405 3.036 L 1.411 3.023 L 1.411 2.983 L 1.391 2.949 L 1.391 2.830 L 1.398 2.337 L 1.385 2.310 L 1.391 2.277 L 1.378 2.230 L 1.378 2.184 L 1.365 2.157 L 1.358 2.077 L 1.365 1.951 L 1.352 1.884 z" fill="none" stroke="black" stroke-width="0.017" />            <path d="M 1.358 1.604 L 1.358 1.624 L 1.352 1.631 L 1.352 1.664 L 1.358 1.758 L 1.352 1.664 L 1.352 1.631 L 1.358 1.624 z" fill="none" stroke="black" stroke-width="0.017" />            <path d="M 1.638 1.571 L 1.631 1.578 L 1.591 1.578 L 1.631 1.578 L 1.638 1.571 L 1.804 1.571 L 2.350 1.571 L 2.377 1.571 L 2.430 1.578 L 2.397 1.571 L 2.383 1.578 L 2.350 1.571 L 1.811 1.571 z" fill="none" stroke="black" stroke-width="0.017" />            <path d="M 1.704 1.531 L 1.704 1.551 L 1.791 1.558 L 1.844 1.558 L 1.871 1.551 L 1.864 1.538 L 1.857 1.558 L 1.844 1.558 L 1.711 1.531 L 1.784 1.538 L 1.798 1.538 L 1.831 1.531 L 1.838 1.538 L 1.851 1.538 L 1.838 1.531 L 1.784 1.538 z" fill="none" stroke="black" stroke-width="0.017" />            <path d="M 1.371 1.525 L 1.358 1.531 L 1.358 1.578 L 1.358 1.538 L 1.371 1.525 L 1.391 1.525 L 1.405 1.531 L 1.438 1.585 L 1.398 1.545 L 1.371 1.551 L 1.378 1.678 L 1.378 1.764 L 1.365 1.831 L 1.378 1.838 L 1.378 1.877 L 1.371 1.891 L 1.371 1.818 L 1.371 1.778 L 1.378 1.678 L 1.371 1.558 L 1.391 1.545 L 1.431 1.585 L 1.445 1.585 L 1.458 1.571 L 1.545 1.585 L 1.458 1.591 L 1.545 1.591 L 1.545 1.578 L 1.465 1.578 L 1.451 1.571 L 1.411 1.531 L 1.398 1.525 z" fill="none" stroke="black" stroke-width="0.017" />            <path d="M 5.959 1.505 L 5.979 1.525 L 5.959 1.518 L 5.979 1.525 L 5.992 1.538 L 5.979 1.585 L 5.965 1.578 L 5.952 1.565 L 5.979 1.565 L 5.965 1.558 L 5.952 1.558 L 5.965 1.578 L 5.985 1.585 L 5.985 1.684 L 5.992 1.711 L 5.985 1.738 L 5.965 1.751 L 5.965 1.764 L 5.945 1.784 L 5.965 1.791 L 5.979 1.778 L 6.005 1.778 L 6.012 1.724 L 6.005 1.671 L 6.005 1.644 L 6.012 1.525 L 5.999 1.511 L 5.985 1.505 z" fill="none" stroke="black" stroke-width="0.017" />            <path d="M 1.338 1.438 L 1.345 1.591 L 1.345 1.604 L 1.338 1.684 L 1.345 1.691 L 1.345 1.764 L 1.345 1.691 L 1.338 1.684 L 1.345 1.604 L 1.345 1.591 z" fill="none" stroke="black" stroke-width="0.017" />            <path d="M 2.616 1.431 L 2.623 1.451 L 2.603 1.471 L 2.616 1.465 L 2.636 1.458 L 2.636 1.465 L 2.643 1.478 L 2.630 1.491 L 2.616 1.491 L 2.630 1.498 L 2.643 1.491 L 2.643 1.471 L 2.636 1.465 L 2.636 1.451 z" fill="none" stroke="black" stroke-width="0.017" />            <path d="M 2.397 1.431 L 2.377 1.445 L 2.337 1.451 L 2.297 1.451 L 2.277 1.438 L 2.290 1.451 L 2.343 1.451 L 2.383 1.445 L 2.397 1.431 L 2.430 1.431 z" fill="none" stroke="black" stroke-width="0.017" />            <path d="M 2.031 1.418 L 2.064 1.438 L 2.031 1.431 L 2.057 1.431 L 2.084 1.438 L 2.104 1.451 L 2.144 1.451 L 2.104 1.451 L 2.097 1.425 L 2.110 1.438 L 2.137 1.438 L 2.117 1.438 L 2.104 1.425 L 2.071 1.418 z" fill="none" stroke="black" stroke-width="0.017" />            <path d="M 1.851 1.418 L 1.824 1.425 L 1.851 1.418 L 1.871 1.425 L 1.931 1.418 L 1.937 1.425 L 1.951 1.425 L 1.937 1.418 L 1.871 1.425 z" fill="none" stroke="black" stroke-width="0.017" />            <path d="M 1.338 1.418 L 1.325 1.425 L 1.318 1.438 L 1.318 1.678 L 1.332 1.738 L 1.338 1.911 L 1.338 2.110 L 1.345 2.237 L 1.352 2.264 L 1.358 2.270 L 1.358 2.284 L 1.352 2.304 L 1.325 2.324 L 1.258 2.317 L 1.245 2.310 L 1.312 2.317 L 1.332 2.337 L 1.318 2.343 L 1.292 2.337 L 1.252 2.337 L 1.232 2.324 L 1.212 2.304 L 1.218 2.317 L 1.225 2.317 L 1.245 2.337 L 1.318 2.343 L 1.332 2.343 L 1.345 2.337 L 1.325 2.330 L 1.338 2.317 L 1.345 2.317 L 1.352 2.290 L 1.358 2.284 L 1.358 2.270 L 1.352 2.264 L 1.345 2.237 L 1.345 2.091 L 1.338 1.911 L 1.332 1.731 L 1.318 1.678 L 1.318 1.438 z" fill="none" stroke="black" stroke-width="0.017" />            <path d="M 2.383 1.411 L 2.363 1.431 L 2.324 1.438 L 2.310 1.438 L 2.290 1.425 L 2.304 1.431 L 2.310 1.438 L 2.324 1.438 L 2.370 1.431 L 2.397 1.411 L 2.437 1.418 L 2.410 1.418 L 2.403 1.411 z" fill="none" stroke="black" stroke-width="0.017" />            <path d="M 1.551 1.391 L 1.585 1.391 L 1.611 1.405 L 1.678 1.405 L 1.691 1.398 L 1.704 1.398 L 1.704 1.418 L 1.591 1.418 L 1.585 1.411 L 1.551 1.411 L 1.585 1.411 L 1.591 1.418 L 1.718 1.418 L 1.718 1.405 L 1.684 1.405 L 1.598 1.398 L 1.591 1.391 z" fill="none" stroke="black" stroke-width="0.017" />            <path d="M 1.784 1.378 L 1.758 1.405 L 1.731 1.405 L 1.751 1.405 L 1.758 1.418 L 1.778 1.418 L 1.798 1.398 L 1.798 1.378 z" fill="none" stroke="black" stroke-width="0.017" />            <path d="M 2.596 1.371 L 2.596 1.398 L 2.583 1.438 L 2.577 1.451 L 2.583 1.471 L 2.583 1.498 L 2.570 1.511 L 2.570 1.525 L 2.570 1.531 L 2.570 1.565 L 2.557 1.571 L 2.530 1.565 L 2.537 1.558 L 2.530 1.538 L 2.517 1.538 L 2.490 1.518 L 2.523 1.538 L 2.530 1.545 L 2.537 1.558 L 2.523 1.571 L 2.490 1.571 L 2.483 1.578 L 2.457 1.578 L 2.410 1.525 L 2.397 1.525 L 2.397 1.538 L 2.417 1.531 L 2.410 1.558 L 2.437 1.558 L 2.457 1.578 L 2.490 1.578 L 2.550 1.578 L 2.563 1.571 L 2.577 1.565 L 2.577 1.538 L 2.570 1.531 L 2.577 1.511 L 2.590 1.531 L 2.590 1.518 L 2.577 1.478 L 2.583 1.438 L 2.583 1.425 L 2.596 1.405 L 2.616 1.378 L 2.623 1.418 L 2.616 1.371 z" fill="none" stroke="black" stroke-width="0.017" />            <path d="M 1.358 1.318 L 1.352 1.332 L 1.345 1.318 L 1.332 1.312 L 1.332 1.352 L 1.352 1.352 L 1.365 1.345 L 1.378 1.325 L 1.358 1.345 L 1.352 1.332 L 1.371 1.305 L 1.385 1.312 z" fill="none" stroke="black" stroke-width="0.017" />            <path d="M 2.596 1.252 L 2.596 1.285 L 2.616 1.318 L 2.623 1.338 L 2.636 1.338 L 2.636 1.318 L 2.623 1.298 L 2.623 1.278 L 2.616 1.265 L 2.610 1.252 L 2.610 1.265 L 2.623 1.285 L 2.630 1.318 L 2.630 1.338 L 2.616 1.325 L 2.610 1.312 L 2.596 1.278 z" fill="none" stroke="black" stroke-width="0.017" />            <path d="M 3.236 1.232 L 3.242 1.245 L 3.256 1.258 L 3.262 1.272 L 3.269 1.338 L 3.309 1.345 L 3.355 1.338 L 3.369 1.338 L 3.375 1.338 L 3.395 1.345 L 3.475 1.338 L 3.595 1.345 L 3.608 1.338 L 3.655 1.292 L 3.662 1.278 L 3.648 1.258 L 3.615 1.292 L 3.608 1.258 L 3.615 1.292 L 3.595 1.292 L 3.595 1.258 L 3.602 1.305 L 3.588 1.318 L 3.542 1.325 L 3.515 1.325 L 3.469 1.312 L 3.455 1.312 L 3.389 1.312 L 3.349 1.312 L 3.349 1.325 L 3.355 1.312 L 3.382 1.312 L 3.395 1.325 L 3.409 1.325 L 3.455 1.312 L 3.455 1.338 L 3.449 1.332 L 3.395 1.345 L 3.355 1.338 L 3.342 1.345 L 3.322 1.345 L 3.309 1.345 L 3.276 1.338 L 3.262 1.325 L 3.262 1.272 L 3.256 1.252 z" fill="none" stroke="black" stroke-width="0.017" />            <path d="M 2.763 1.205 L 2.756 1.218 L 2.750 1.272 L 2.756 1.338 L 2.756 1.365 L 2.730 1.391 L 2.730 1.451 L 2.730 1.471 L 2.676 1.525 L 2.636 1.525 L 2.636 1.531 L 2.623 1.545 L 2.610 1.531 L 2.610 1.505 L 2.603 1.491 L 2.610 1.505 L 2.610 1.545 L 2.596 1.571 L 2.583 1.585 L 2.563 1.591 L 1.591 1.591 L 2.563 1.591 L 2.596 1.578 L 2.603 1.558 L 2.616 1.545 L 2.630 1.545 L 2.656 1.545 L 2.710 1.538 L 2.730 1.511 L 2.743 1.491 L 2.750 1.471 L 2.750 1.438 L 2.756 1.425 L 2.776 1.391 L 2.796 1.371 L 2.836 1.338 L 2.856 1.332 L 2.856 1.325 L 2.869 1.312 L 2.876 1.292 L 2.889 1.278 L 2.896 1.278 L 2.909 1.258 L 2.876 1.252 L 2.889 1.238 L 2.896 1.225 L 2.903 1.245 L 2.923 1.252 L 2.963 1.252 L 2.969 1.278 L 2.963 1.278 L 2.949 1.292 L 2.936 1.292 L 2.923 1.278 L 2.936 1.265 L 2.916 1.285 L 2.929 1.292 L 2.956 1.292 L 2.976 1.272 L 2.989 1.278 L 2.996 1.298 L 3.016 1.298 L 3.063 1.305 L 3.082 1.298 L 3.142 1.298 L 3.169 1.325 L 3.089 1.325 L 3.082 1.318 L 2.996 1.318 L 2.983 1.305 L 2.969 1.305 L 2.929 1.312 L 2.909 1.305 L 2.896 1.292 L 2.909 1.305 L 2.929 1.312 L 2.989 1.318 L 3.089 1.325 L 3.189 1.325 L 3.196 1.318 L 3.202 1.312 L 3.229 1.312 L 3.229 1.318 L 3.249 1.325 L 3.242 1.312 L 3.222 1.305 L 3.236 1.298 L 3.242 1.285 L 3.209 1.285 L 3.176 1.305 L 3.142 1.298 L 3.096 1.305 L 3.016 1.298 L 2.996 1.292 L 2.989 1.278 L 2.963 1.252 L 2.929 1.252 L 2.903 1.225 L 2.883 1.232 L 2.876 1.252 L 2.863 1.252 L 2.849 1.265 L 2.843 1.298 L 2.836 1.312 L 2.810 1.318 L 2.790 1.345 L 2.783 1.358 L 2.796 1.371 L 2.783 1.378 L 2.776 1.385 L 2.756 1.418 L 2.750 1.438 L 2.750 1.465 L 2.743 1.485 L 2.736 1.498 L 2.710 1.525 L 2.696 1.511 L 2.723 1.485 L 2.730 1.471 L 2.730 1.451 L 2.730 1.398 L 2.770 1.371 L 2.776 1.338 L 2.770 1.312 L 2.776 1.225 L 2.803 1.198 L 2.783 1.212 L 2.776 1.225 L 2.776 1.252 L 2.770 1.258 L 2.763 1.272 L 2.756 1.218 L 2.790 1.185 z" fill="none" stroke="black" stroke-width="0.017" />            <path d="M 3.162 1.172 L 3.182 1.172 L 3.196 1.178 L 3.209 1.185 L 3.256 1.225 L 3.242 1.218 L 3.216 1.185 L 3.202 1.178 L 3.189 1.172 z" fill="none" stroke="black" stroke-width="0.017" />            <path d="M 3.236 1.152 L 3.236 1.178 L 3.242 1.192 L 3.269 1.218 L 3.269 1.245 L 3.282 1.258 L 3.282 1.272 L 3.282 1.238 L 3.276 1.252 L 3.269 1.212 L 3.242 1.185 L 3.236 1.172 z" fill="none" stroke="black" stroke-width="0.017" />            <path d="M 2.856 1.152 L 2.843 1.165 L 2.830 1.192 L 2.816 1.212 L 2.823 1.198 L 2.843 1.178 L 2.843 1.172 L 2.869 1.172 L 2.849 1.192 L 2.843 1.205 L 2.843 1.225 L 2.830 1.238 L 2.823 1.238 L 2.810 1.252 L 2.803 1.265 L 2.803 1.278 L 2.810 1.258 L 2.836 1.232 L 2.843 1.245 L 2.830 1.272 L 2.843 1.245 L 2.843 1.212 L 2.849 1.198 L 2.876 1.172 L 2.869 1.158 z" fill="none" stroke="black" stroke-width="0.017" />            <path d="M 5.825 1.118 L 5.825 1.172 L 5.812 1.185 L 5.805 1.212 L 5.812 1.272 L 5.792 1.305 L 5.799 1.365 L 5.792 1.391 L 5.799 1.471 L 5.785 1.551 L 5.779 1.724 L 5.779 1.991 L 5.772 2.004 L 5.752 2.024 L 5.726 2.031 L 5.639 2.031 L 5.632 2.037 L 5.579 2.037 L 5.579 2.051 L 5.632 2.057 L 5.726 2.051 L 5.766 2.044 L 5.785 2.031 L 5.812 2.031 L 5.839 2.017 L 5.839 1.857 L 5.852 1.844 L 5.852 1.791 L 5.859 1.784 L 5.865 1.758 L 5.859 1.784 L 5.852 1.791 L 5.852 1.838 L 5.839 1.851 L 5.832 2.017 L 5.819 2.004 L 5.819 1.824 L 5.839 1.764 L 5.845 1.751 L 5.865 1.744 L 5.845 1.744 L 5.839 1.758 L 5.839 1.778 L 5.819 1.824 L 5.819 1.997 L 5.792 1.997 L 5.799 1.731 L 5.805 1.724 L 5.805 1.545 L 5.805 1.724 L 5.799 1.731 L 5.799 2.011 L 5.819 2.004 L 5.832 2.017 L 5.805 2.031 L 5.779 2.031 L 5.759 2.044 L 5.726 2.051 L 5.686 2.044 L 5.632 2.057 L 5.606 2.044 L 5.646 2.031 L 5.726 2.031 L 5.752 2.024 L 5.766 2.017 L 5.779 1.991 L 5.779 1.724 L 5.785 1.551 L 5.799 1.471 L 5.799 1.445 L 5.792 1.391 L 5.799 1.358 L 5.792 1.305 L 5.805 1.292 L 5.812 1.272 L 5.805 1.212 L 5.812 1.192 L 5.825 1.178 z" fill="none" stroke="black" stroke-width="0.017" />            <path d="M 2.883 1.145 L 2.916 1.118 L 2.929 1.132 L 2.916 1.145 L 2.916 1.152 L 2.909 1.165 L 2.929 1.132 L 2.916 1.118 z" fill="none" stroke="black" stroke-width="0.017" />            <path d="M 3.222 1.052 L 3.276 1.099 L 3.276 1.172 L 3.282 1.178 L 3.282 1.225 L 3.282 1.178 L 3.276 1.172 L 3.276 1.092 L 3.256 1.072 L 3.269 1.065 L 3.289 1.085 L 3.296 1.125 L 3.302 1.185 L 3.302 1.278 L 3.316 1.298 L 3.316 1.312 L 3.329 1.325 L 3.335 1.312 L 3.316 1.305 L 3.309 1.292 L 3.302 1.272 L 3.302 1.185 L 3.296 1.118 L 3.289 1.079 L 3.256 1.045 L 3.236 1.032 z" fill="none" stroke="black" stroke-width="0.017" />            <path d="M 4.860 1.012 L 4.893 1.019 L 5.027 1.019 L 5.013 1.032 L 4.960 1.025 L 4.940 1.025 L 4.873 1.032 L 4.860 1.025 L 4.940 1.025 L 4.960 1.025 L 5.013 1.032 L 5.086 1.025 L 5.373 1.032 L 5.426 1.045 L 5.559 1.045 L 5.566 1.039 L 5.686 1.039 L 5.686 1.019 L 5.679 1.039 L 5.559 1.045 L 5.433 1.045 L 5.373 1.032 L 5.193 1.025 L 5.106 1.032 L 5.093 1.032 L 5.027 1.019 L 5.120 1.012 z" fill="none" stroke="black" stroke-width="0.017" />            <path d="M 5.206 1.005 L 5.166 1.019 L 5.200 1.012 L 5.206 1.005 L 5.226 1.005 L 5.293 1.005 L 5.333 1.005 L 5.446 1.019 L 5.459 1.019 L 5.486 1.005 L 5.506 1.019 L 5.539 1.019 L 5.552 1.019 L 5.566 1.005 L 5.586 1.005 L 5.592 1.012 L 5.612 1.012 L 5.619 1.005 L 5.639 1.005 L 5.659 1.019 L 5.679 1.005 L 5.706 1.012 L 5.706 1.045 L 5.719 1.052 L 5.746 1.052 L 5.759 1.059 L 5.766 1.065 L 5.772 1.079 L 5.779 1.112 L 5.779 1.285 L 5.779 1.112 L 5.772 1.072 L 5.766 1.059 L 5.752 1.059 L 5.746 1.052 L 5.712 1.045 L 5.732 1.025 L 5.792 1.025 L 5.805 1.039 L 5.812 1.072 L 5.812 1.085 L 5.812 1.105 L 5.812 1.125 L 5.812 1.105 L 5.812 1.085 L 5.812 1.072 L 5.799 1.025 L 5.779 1.019 L 5.726 1.025 L 5.712 1.045 L 5.706 1.019 L 5.719 1.005 L 5.792 1.005 L 5.819 1.019 L 5.832 1.032 L 5.839 1.045 L 5.845 1.092 L 5.845 1.192 L 5.832 1.278 L 5.839 1.385 L 5.839 1.405 L 5.832 1.411 L 5.832 1.431 L 5.839 1.438 L 5.839 1.465 L 5.832 1.525 L 5.839 1.644 L 5.859 1.678 L 5.859 1.724 L 5.859 1.678 L 5.845 1.658 L 5.839 1.631 L 5.845 1.538 L 5.832 1.525 L 5.839 1.471 L 5.832 1.431 L 5.832 1.411 L 5.839 1.405 L 5.839 1.385 L 5.832 1.278 L 5.845 1.192 L 5.845 1.092 L 5.839 1.039 L 5.832 1.025 L 5.825 1.019 L 5.812 1.012 L 5.792 1.005 L 5.706 1.012 L 5.679 1.005 L 5.672 1.012 L 5.646 1.012 L 5.639 1.005 L 5.619 1.005 L 5.612 1.012 L 5.592 1.012 L 5.586 1.005 L 5.566 1.005 L 5.539 1.019 L 5.513 1.019 L 5.493 1.012 L 5.479 1.005 L 5.446 1.019 L 5.333 1.005 L 5.293 1.005 L 5.226 1.005 z" fill="none" stroke="black" stroke-width="0.017" />            <path d="M 4.015 0.999 L 3.948 1.005 L 3.901 1.019 L 3.815 1.025 L 3.782 1.025 L 3.775 1.045 L 3.795 1.045 L 3.901 1.039 L 3.935 1.025 L 3.981 1.025 L 4.048 1.039 L 4.154 1.025 L 4.188 1.025 L 4.208 1.032 L 4.241 1.032 L 4.254 1.032 L 4.288 1.032 L 4.787 1.032 L 4.833 1.032 L 4.847 1.025 L 4.840 1.005 L 4.248 1.012 L 4.081 0.999 z" fill="none" stroke="black" stroke-width="0.017" />            <path d="M 0.000 0.000 L 6.658 0.000 L 6.658 6.658 L 0.000 6.658 L 0.000 0.000 z" fill="none" stroke="black" stroke-width="0.017" /></svg>