<?xml version="1.0" standalone="no"?>
<svg viewBox="0 0 3.732 3.732"
     xmlns="http://www.w3.org/2000/svg" version="1.1">

  <title>Example triangle01- simple example of a 'path'</title>
  <desc>A path that draws a triangle</desc>            <path d="M 0.321 3.713 L 0.302 3.713 L 0.302 3.720 L 0.328 3.720 L 0.336 3.717 L 0.355 3.698 L 0.328 3.720 L 0.302 3.717 L 0.325 3.713 L 0.347 3.691 z" fill="none" stroke="black" stroke-width="0.009" />            <path d="M 0.228 3.642 L 0.228 3.657 L 0.231 3.664 L 0.239 3.672 L 0.239 3.676 L 0.250 3.679 L 0.250 3.664 L 0.239 3.653 L 0.235 3.646 L 0.239 3.653 L 0.239 3.657 L 0.250 3.668 L 0.246 3.679 L 0.239 3.672 L 0.228 3.657 z" fill="none" stroke="black" stroke-width="0.009" />            <path d="M 0.478 3.605 L 0.470 3.612 L 0.466 3.612 L 0.422 3.653 L 0.410 3.664 L 0.410 3.683 L 0.396 3.698 L 0.392 3.705 L 0.392 3.720 L 0.399 3.720 L 0.407 3.705 L 0.422 3.691 L 0.425 3.683 L 0.429 3.668 L 0.463 3.631 L 0.474 3.620 L 0.478 3.631 L 0.474 3.638 L 0.463 3.649 L 0.463 3.653 L 0.452 3.661 L 0.466 3.676 L 0.463 3.668 L 0.455 3.661 L 0.463 3.657 L 0.474 3.642 L 0.474 3.638 L 0.489 3.638 L 0.474 3.653 L 0.470 3.664 L 0.474 3.679 L 0.474 3.657 L 0.485 3.646 L 0.485 3.631 L 0.481 3.631 L 0.478 3.620 L 0.485 3.612 L 0.485 3.605 L 0.485 3.612 L 0.478 3.620 L 0.429 3.664 L 0.425 3.683 L 0.407 3.705 L 0.396 3.717 L 0.392 3.709 L 0.396 3.702 L 0.414 3.683 L 0.410 3.668 L 0.425 3.653 L 0.470 3.612 L 0.474 3.612 z" fill="none" stroke="black" stroke-width="0.009" />            <path d="M 0.172 3.467 L 0.164 3.470 L 0.142 3.493 L 0.149 3.489 L 0.172 3.467 L 0.190 3.485 L 0.190 3.500 L 0.187 3.508 L 0.168 3.526 L 0.168 3.534 L 0.164 3.541 L 0.142 3.552 L 0.149 3.545 L 0.160 3.523 L 0.179 3.500 L 0.175 3.482 L 0.168 3.482 L 0.149 3.500 L 0.142 3.500 L 0.153 3.500 L 0.172 3.482 L 0.179 3.489 L 0.179 3.497 L 0.160 3.519 L 0.153 3.538 L 0.146 3.556 L 0.153 3.556 L 0.164 3.545 L 0.168 3.526 L 0.183 3.515 L 0.187 3.511 L 0.190 3.504 L 0.190 3.482 L 0.179 3.470 z" fill="none" stroke="black" stroke-width="0.009" />            <path d="M 0.067 3.336 L 0.045 3.340 L 0.045 3.347 L 0.052 3.355 L 0.056 3.355 L 0.063 3.373 L 0.063 3.366 L 0.060 3.355 L 0.045 3.344 L 0.060 3.347 L 0.067 3.336 L 0.075 3.340 L 0.082 3.358 L 0.071 3.351 L 0.071 3.370 L 0.075 3.351 L 0.086 3.358 L 0.090 3.351 L 0.078 3.340 z" fill="none" stroke="black" stroke-width="0.009" />            <path d="M 0.332 3.198 L 0.325 3.209 L 0.328 3.250 L 0.336 3.239 L 0.336 3.228 L 0.332 3.250 L 0.325 3.243 L 0.325 3.209 L 0.340 3.198 z" fill="none" stroke="black" stroke-width="0.009" />            <path d="M 0.097 3.075 L 0.093 3.082 L 0.112 3.079 L 0.149 3.086 L 0.172 3.086 L 0.202 3.079 L 0.213 3.079 L 0.269 3.082 L 0.280 3.090 L 0.306 3.090 L 0.313 3.086 L 0.306 3.090 L 0.299 3.082 L 0.280 3.090 L 0.272 3.082 L 0.213 3.079 L 0.202 3.079 L 0.172 3.086 L 0.149 3.086 L 0.116 3.082 z" fill="none" stroke="black" stroke-width="0.009" />            <path d="M 0.011 3.045 L 0.000 3.052 L 0.007 3.056 L 0.000 3.064 L 0.007 3.064 L 0.019 3.086 L 0.007 3.086 L 0.019 3.086 L 0.022 3.082 L 0.060 3.082 L 0.071 3.079 L 0.078 3.071 L 0.071 3.079 L 0.056 3.075 L 0.052 3.067 L 0.060 3.060 L 0.075 3.060 L 0.078 3.056 L 0.097 3.056 L 0.127 3.064 L 0.157 3.067 L 0.172 3.060 L 0.179 3.060 L 0.187 3.064 L 0.202 3.060 L 0.216 3.067 L 0.224 3.064 L 0.228 3.049 L 0.243 3.049 L 0.317 3.052 L 0.325 3.056 L 0.340 3.071 L 0.340 3.108 L 0.343 3.183 L 0.362 3.172 L 0.373 3.172 L 0.384 3.164 L 0.392 3.172 L 0.384 3.183 L 0.384 3.194 L 0.373 3.205 L 0.362 3.202 L 0.373 3.191 L 0.366 3.187 L 0.377 3.183 L 0.369 3.183 L 0.366 3.187 L 0.358 3.187 L 0.351 3.191 L 0.347 3.198 L 0.355 3.191 L 0.369 3.191 L 0.358 3.202 L 0.366 3.209 L 0.377 3.205 L 0.384 3.194 L 0.392 3.205 L 0.377 3.220 L 0.366 3.217 L 0.358 3.220 L 0.355 3.224 L 0.355 3.228 L 0.347 3.235 L 0.347 3.220 L 0.343 3.213 L 0.336 3.213 L 0.343 3.224 L 0.343 3.235 L 0.358 3.239 L 0.347 3.254 L 0.347 3.280 L 0.343 3.288 L 0.332 3.299 L 0.328 3.310 L 0.321 3.321 L 0.306 3.325 L 0.310 3.314 L 0.310 3.302 L 0.313 3.280 L 0.325 3.265 L 0.328 3.258 L 0.321 3.254 L 0.313 3.250 L 0.310 3.191 L 0.310 3.183 L 0.310 3.176 L 0.313 3.157 L 0.317 3.146 L 0.325 3.138 L 0.325 3.090 L 0.332 3.075 L 0.325 3.071 L 0.310 3.064 L 0.299 3.064 L 0.287 3.071 L 0.276 3.064 L 0.257 3.067 L 0.239 3.067 L 0.261 3.067 L 0.276 3.064 L 0.284 3.067 L 0.284 3.075 L 0.291 3.067 L 0.299 3.064 L 0.306 3.064 L 0.310 3.067 L 0.317 3.071 L 0.310 3.079 L 0.321 3.071 L 0.328 3.079 L 0.328 3.086 L 0.325 3.135 L 0.317 3.142 L 0.313 3.168 L 0.299 3.183 L 0.313 3.179 L 0.310 3.191 L 0.313 3.250 L 0.310 3.254 L 0.310 3.269 L 0.313 3.250 L 0.325 3.265 L 0.317 3.276 L 0.310 3.276 L 0.317 3.284 L 0.310 3.302 L 0.313 3.310 L 0.310 3.317 L 0.302 3.325 L 0.291 3.317 L 0.299 3.310 L 0.291 3.317 L 0.291 3.321 L 0.284 3.329 L 0.280 3.329 L 0.269 3.340 L 0.280 3.347 L 0.291 3.340 L 0.302 3.336 L 0.310 3.329 L 0.321 3.325 L 0.321 3.321 L 0.328 3.314 L 0.328 3.306 L 0.343 3.291 L 0.347 3.280 L 0.347 3.254 L 0.388 3.213 L 0.392 3.202 L 0.388 3.183 L 0.388 3.176 L 0.388 3.164 L 0.381 3.164 L 0.369 3.172 L 0.351 3.176 L 0.343 3.183 L 0.336 3.176 L 0.340 3.108 L 0.340 3.067 L 0.325 3.052 L 0.317 3.052 L 0.243 3.049 L 0.228 3.049 L 0.187 3.052 L 0.142 3.045 L 0.134 3.045 L 0.123 3.049 L 0.082 3.049 L 0.063 3.049 z" fill="none" stroke="black" stroke-width="0.009" />            <path d="M 1.306 2.635 L 1.295 2.646 L 1.291 2.653 L 1.287 2.661 L 1.287 2.679 L 1.287 2.661 L 1.299 2.646 L 1.306 2.653 L 1.299 2.661 L 1.299 2.672 L 1.299 2.664 L 1.302 2.657 L 1.306 2.649 L 1.314 2.642 L 1.299 2.646 z" fill="none" stroke="black" stroke-width="0.009" />            <path d="M 1.168 2.534 L 1.175 2.537 L 1.175 2.560 L 1.168 2.567 L 1.157 2.593 L 1.153 2.638 L 1.149 2.788 L 1.149 2.806 L 1.149 2.885 L 1.157 2.948 L 1.153 2.967 L 1.153 2.978 L 1.164 2.978 L 1.164 2.989 L 1.157 3.045 L 1.157 3.123 L 1.149 3.131 L 1.153 3.161 L 1.153 3.168 L 1.153 3.213 L 1.153 3.399 L 1.153 3.429 L 1.146 3.485 L 1.146 3.497 L 1.149 3.597 L 1.146 3.702 L 1.142 3.705 L 1.142 3.728 L 1.142 3.709 L 1.146 3.705 L 1.149 3.597 L 1.146 3.497 L 1.146 3.489 L 1.153 3.429 L 1.153 3.399 L 1.153 3.213 L 1.153 3.168 L 1.153 3.161 L 1.149 3.135 L 1.157 3.123 L 1.157 3.045 L 1.164 2.989 L 1.164 2.974 L 1.153 2.967 L 1.157 2.948 L 1.149 2.885 L 1.149 2.806 L 1.149 2.788 L 1.153 2.638 L 1.157 2.593 L 1.175 2.564 L 1.175 2.534 z" fill="none" stroke="black" stroke-width="0.009" />            <path d="M 1.623 2.455 L 1.616 2.459 L 1.623 2.459 L 1.631 2.467 L 1.642 2.470 L 1.631 2.478 L 1.638 2.474 L 1.646 2.470 L 1.649 2.478 L 1.642 2.485 L 1.631 2.485 L 1.646 2.485 L 1.657 2.478 L 1.668 2.467 L 1.694 2.467 L 1.664 2.467 L 1.653 2.478 L 1.634 2.467 z" fill="none" stroke="black" stroke-width="0.009" />            <path d="M 1.321 2.452 L 1.325 2.459 L 1.254 2.463 L 1.235 2.470 L 1.228 2.470 L 1.213 2.467 L 1.205 2.470 L 1.198 2.474 L 1.187 2.485 L 1.179 2.496 L 1.175 2.511 L 1.168 2.511 L 1.172 2.523 L 1.175 2.508 L 1.179 2.500 L 1.187 2.489 L 1.202 2.474 L 1.209 2.470 L 1.235 2.470 L 1.254 2.463 L 1.265 2.463 L 1.272 2.474 L 1.276 2.463 L 1.280 2.474 L 1.284 2.463 L 1.325 2.463 z" fill="none" stroke="black" stroke-width="0.009" />            <path d="M 1.265 2.452 L 1.231 2.455 L 1.202 2.459 L 1.175 2.470 L 1.164 2.482 L 1.161 2.493 L 1.179 2.470 L 1.187 2.467 L 1.194 2.463 L 1.205 2.459 L 1.235 2.455 L 1.265 2.452 L 1.299 2.452 z" fill="none" stroke="black" stroke-width="0.009" />            <path d="M 1.612 2.437 L 1.608 2.444 L 1.623 2.448 L 1.627 2.444 L 1.638 2.444 L 1.634 2.437 L 1.634 2.444 L 1.616 2.437 L 1.627 2.437 z" fill="none" stroke="black" stroke-width="0.009" />            <path d="M 1.187 2.426 L 1.172 2.429 L 1.164 2.433 L 1.157 2.437 L 1.146 2.448 L 1.142 2.463 L 1.138 2.485 L 1.123 2.523 L 1.123 2.537 L 1.127 2.541 L 1.127 2.560 L 1.142 2.586 L 1.142 2.597 L 1.134 2.840 L 1.134 2.903 L 1.134 3.064 L 1.138 3.075 L 1.134 3.079 L 1.134 3.086 L 1.134 3.224 L 1.142 3.414 L 1.142 3.422 L 1.134 3.482 L 1.134 3.497 L 1.138 3.545 L 1.131 3.608 L 1.131 3.646 L 1.134 3.705 L 1.131 3.709 L 1.131 3.728 L 1.131 3.709 L 1.131 3.646 L 1.131 3.608 L 1.138 3.545 L 1.134 3.497 L 1.134 3.482 L 1.142 3.422 L 1.142 3.414 L 1.134 3.224 L 1.134 3.086 L 1.134 3.079 L 1.138 3.075 L 1.134 3.064 L 1.134 2.903 L 1.134 2.840 L 1.142 2.597 L 1.142 2.586 L 1.127 2.556 L 1.123 2.537 L 1.123 2.523 L 1.131 2.500 L 1.138 2.474 L 1.142 2.463 L 1.146 2.452 L 1.161 2.437 L 1.164 2.444 L 1.172 2.452 L 1.164 2.455 L 1.157 2.467 L 1.153 2.474 L 1.142 2.500 L 1.138 2.515 L 1.142 2.549 L 1.138 2.560 L 1.146 2.549 L 1.138 2.541 L 1.138 2.515 L 1.142 2.504 L 1.146 2.493 L 1.161 2.463 L 1.168 2.455 L 1.175 2.452 L 1.183 2.455 L 1.194 2.452 L 1.198 2.448 L 1.205 2.448 L 1.194 2.444 L 1.194 2.440 L 1.187 2.437 L 1.198 2.448 L 1.187 2.452 L 1.175 2.452 L 1.172 2.452 L 1.168 2.448 L 1.161 2.437 L 1.168 2.433 L 1.172 2.429 L 1.190 2.426 L 1.198 2.426 L 1.355 2.429 L 1.399 2.437 L 1.425 2.437 L 1.440 2.437 L 1.470 2.433 L 1.549 2.437 L 1.560 2.429 L 1.601 2.433 L 1.593 2.437 L 1.590 2.440 L 1.575 2.440 L 1.564 2.448 L 1.545 2.452 L 1.467 2.452 L 1.455 2.444 L 1.440 2.452 L 1.403 2.455 L 1.392 2.444 L 1.381 2.444 L 1.392 2.444 L 1.399 2.452 L 1.369 2.452 L 1.369 2.440 L 1.358 2.448 L 1.358 2.440 L 1.355 2.455 L 1.343 2.455 L 1.332 2.444 L 1.317 2.440 L 1.302 2.444 L 1.258 2.444 L 1.243 2.440 L 1.235 2.440 L 1.224 2.448 L 1.216 2.448 L 1.209 2.440 L 1.213 2.448 L 1.224 2.448 L 1.239 2.440 L 1.246 2.448 L 1.261 2.440 L 1.295 2.440 L 1.336 2.448 L 1.336 2.452 L 1.355 2.455 L 1.358 2.452 L 1.369 2.452 L 1.403 2.455 L 1.448 2.448 L 1.463 2.448 L 1.545 2.452 L 1.567 2.448 L 1.578 2.440 L 1.590 2.440 L 1.593 2.437 L 1.601 2.437 L 1.605 2.429 L 1.612 2.426 L 1.556 2.429 L 1.549 2.437 L 1.470 2.433 L 1.440 2.437 L 1.425 2.437 L 1.399 2.437 L 1.355 2.429 L 1.202 2.426 z" fill="none" stroke="black" stroke-width="0.009" />            <path d="M 0.004 2.403 L 0.015 2.414 L 0.030 2.418 L 0.049 2.437 L 0.049 2.508 L 0.041 2.552 L 0.041 2.661 L 0.037 2.687 L 0.034 2.702 L 0.030 2.717 L 0.026 2.724 L 0.015 2.735 L 0.011 2.746 L 0.000 2.754 L 0.007 2.754 L 0.011 2.746 L 0.019 2.754 L 0.007 2.765 L 0.000 2.765 L 0.007 2.765 L 0.022 2.754 L 0.034 2.743 L 0.037 2.735 L 0.041 2.728 L 0.045 2.717 L 0.049 2.698 L 0.052 2.668 L 0.056 2.631 L 0.052 2.564 L 0.060 2.515 L 0.060 2.426 L 0.056 2.418 L 0.041 2.403 L 0.015 2.399 z" fill="none" stroke="black" stroke-width="0.009" />            <path d="M 0.134 2.388 L 0.146 2.392 L 0.157 2.403 L 0.164 2.407 L 0.172 2.411 L 0.220 2.407 L 0.261 2.411 L 0.287 2.411 L 0.299 2.407 L 0.306 2.399 L 0.313 2.403 L 0.306 2.399 L 0.287 2.411 L 0.261 2.411 L 0.235 2.403 L 0.216 2.411 L 0.175 2.411 L 0.164 2.403 L 0.157 2.403 L 0.153 2.396 L 0.142 2.392 z" fill="none" stroke="black" stroke-width="0.009" />            <path d="M 0.034 2.377 L 0.049 2.373 L 0.052 2.377 L 0.060 2.377 L 0.090 2.373 L 0.138 2.377 L 0.153 2.384 L 0.160 2.384 L 0.175 2.381 L 0.179 2.384 L 0.190 2.381 L 0.198 2.381 L 0.216 2.392 L 0.224 2.384 L 0.243 2.381 L 0.302 2.384 L 0.317 2.388 L 0.325 2.399 L 0.321 2.407 L 0.313 2.414 L 0.310 2.422 L 0.313 2.429 L 0.306 2.440 L 0.291 2.455 L 0.284 2.467 L 0.284 2.478 L 0.291 2.478 L 0.299 2.470 L 0.306 2.455 L 0.321 2.440 L 0.321 2.433 L 0.325 2.426 L 0.343 2.407 L 0.351 2.392 L 0.347 2.384 L 0.336 2.384 L 0.332 2.381 L 0.321 2.381 L 0.313 2.388 L 0.306 2.388 L 0.239 2.381 L 0.220 2.388 L 0.209 2.388 L 0.198 2.381 L 0.190 2.381 L 0.179 2.384 L 0.175 2.381 L 0.160 2.384 L 0.153 2.384 L 0.142 2.377 L 0.090 2.373 L 0.060 2.377 L 0.052 2.377 z" fill="none" stroke="black" stroke-width="0.009" />            <path d="M 2.358 2.183 L 2.351 2.190 L 2.336 2.187 L 2.351 2.190 L 2.358 2.194 L 2.336 2.198 L 2.329 2.190 L 2.336 2.198 L 2.358 2.202 L 2.355 2.217 L 2.362 2.217 L 2.370 2.209 L 2.370 2.194 L 2.366 2.190 L 2.370 2.179 L 2.366 2.194 L 2.370 2.198 L 2.370 2.205 L 2.358 2.217 L 2.355 2.209 L 2.355 2.190 L 2.362 2.172 z" fill="none" stroke="black" stroke-width="0.009" />            <path d="M 2.254 1.646 L 2.254 1.653 L 2.258 1.657 L 2.258 1.698 L 2.261 1.731 L 2.269 1.758 L 2.265 1.769 L 2.258 1.761 L 2.254 1.754 L 2.250 1.731 L 2.246 1.694 L 2.246 1.649 L 2.246 1.694 L 2.250 1.731 L 2.254 1.754 L 2.261 1.769 L 2.269 1.769 L 2.269 1.758 L 2.261 1.731 L 2.258 1.698 L 2.258 1.653 z" fill="none" stroke="black" stroke-width="0.009" />            <path d="M 3.515 1.183 L 3.355 1.187 L 3.239 1.190 L 3.157 1.198 L 3.071 1.202 L 2.993 1.202 L 2.985 1.194 L 2.959 1.202 L 2.937 1.202 L 2.903 1.202 L 2.896 1.194 L 2.888 1.190 L 2.877 1.198 L 2.870 1.198 L 2.855 1.190 L 2.847 1.190 L 2.795 1.190 L 2.765 1.190 L 2.728 1.194 L 2.709 1.190 L 2.676 1.190 L 2.664 1.190 L 2.661 1.194 L 2.646 1.190 L 2.638 1.190 L 2.623 1.198 L 2.616 1.202 L 2.612 1.220 L 2.605 1.239 L 2.605 1.254 L 2.612 1.276 L 2.616 1.302 L 2.616 1.317 L 2.608 1.381 L 2.608 1.396 L 2.612 1.481 L 2.601 1.522 L 2.601 1.545 L 2.601 1.552 L 2.608 1.597 L 2.608 1.616 L 2.605 1.620 L 2.608 1.642 L 2.608 1.653 L 2.601 1.743 L 2.605 1.784 L 2.605 1.799 L 2.597 1.810 L 2.597 1.836 L 2.605 1.862 L 2.608 1.952 L 2.605 1.959 L 2.608 2.064 L 2.616 2.153 L 2.616 2.258 L 2.623 2.332 L 2.623 2.455 L 2.616 2.474 L 2.605 2.470 L 2.579 2.459 L 2.556 2.455 L 2.526 2.452 L 2.444 2.452 L 2.377 2.444 L 2.295 2.444 L 2.246 2.437 L 2.209 2.440 L 2.161 2.437 L 2.146 2.429 L 2.134 2.429 L 2.131 2.433 L 2.120 2.433 L 2.082 2.433 L 2.075 2.433 L 2.071 2.429 L 2.064 2.429 L 2.049 2.440 L 2.041 2.440 L 1.974 2.437 L 1.963 2.429 L 1.952 2.429 L 1.914 2.437 L 1.903 2.437 L 1.896 2.437 L 1.884 2.437 L 1.877 2.429 L 1.870 2.429 L 1.862 2.437 L 1.873 2.429 L 1.884 2.437 L 1.914 2.437 L 1.918 2.433 L 1.952 2.440 L 1.944 2.448 L 1.926 2.444 L 1.922 2.448 L 1.884 2.444 L 1.858 2.448 L 1.851 2.433 L 1.832 2.437 L 1.825 2.437 L 1.761 2.433 L 1.750 2.422 L 1.661 2.426 L 1.638 2.422 L 1.631 2.426 L 1.638 2.426 L 1.642 2.422 L 1.661 2.426 L 1.746 2.422 L 1.754 2.426 L 1.758 2.440 L 1.750 2.444 L 1.739 2.440 L 1.728 2.448 L 1.724 2.440 L 1.731 2.433 L 1.743 2.433 L 1.724 2.437 L 1.724 2.444 L 1.720 2.452 L 1.731 2.444 L 1.754 2.448 L 1.769 2.448 L 1.773 2.433 L 1.780 2.433 L 1.791 2.440 L 1.791 2.433 L 1.821 2.437 L 1.832 2.437 L 1.836 2.433 L 1.851 2.444 L 1.840 2.448 L 1.828 2.444 L 1.810 2.455 L 1.787 2.459 L 1.746 2.459 L 1.746 2.452 L 1.746 2.463 L 1.754 2.463 L 1.787 2.459 L 1.810 2.455 L 1.836 2.444 L 1.843 2.444 L 1.862 2.448 L 1.881 2.444 L 1.926 2.444 L 1.952 2.444 L 1.948 2.433 L 1.959 2.429 L 1.974 2.437 L 1.978 2.433 L 1.993 2.444 L 1.996 2.437 L 2.041 2.440 L 2.049 2.440 L 2.064 2.429 L 2.075 2.437 L 2.071 2.444 L 2.056 2.455 L 2.026 2.448 L 2.004 2.448 L 1.970 2.463 L 1.963 2.467 L 1.955 2.474 L 1.944 2.474 L 1.959 2.474 L 1.974 2.463 L 1.989 2.459 L 1.996 2.452 L 2.004 2.448 L 2.030 2.448 L 2.060 2.455 L 2.075 2.452 L 2.090 2.444 L 2.097 2.452 L 2.168 2.455 L 2.187 2.448 L 2.213 2.448 L 2.269 2.455 L 2.291 2.452 L 2.325 2.459 L 2.332 2.459 L 2.362 2.455 L 2.426 2.463 L 2.444 2.459 L 2.523 2.463 L 2.556 2.467 L 2.571 2.474 L 2.593 2.474 L 2.605 2.478 L 2.612 2.485 L 2.579 2.489 L 2.616 2.485 L 2.620 2.478 L 2.623 2.455 L 2.623 2.332 L 2.616 2.258 L 2.616 2.153 L 2.608 2.064 L 2.605 1.959 L 2.608 1.952 L 2.605 1.862 L 2.597 1.836 L 2.597 1.817 L 2.605 1.799 L 2.612 1.802 L 2.612 1.858 L 2.616 1.802 L 2.605 1.799 L 2.601 1.776 L 2.601 1.743 L 2.608 1.653 L 2.608 1.642 L 2.605 1.620 L 2.608 1.616 L 2.608 1.597 L 2.601 1.552 L 2.601 1.545 L 2.601 1.519 L 2.608 1.470 L 2.608 1.396 L 2.608 1.381 L 2.616 1.317 L 2.616 1.302 L 2.612 1.276 L 2.605 1.254 L 2.605 1.239 L 2.608 1.224 L 2.612 1.209 L 2.623 1.198 L 2.638 1.190 L 2.646 1.190 L 2.661 1.194 L 2.664 1.190 L 2.676 1.190 L 2.717 1.194 L 2.739 1.190 L 2.769 1.190 L 2.795 1.190 L 2.847 1.198 L 2.847 1.190 L 2.855 1.190 L 2.870 1.198 L 2.877 1.198 L 2.888 1.190 L 2.896 1.198 L 2.903 1.202 L 2.940 1.202 L 2.955 1.198 L 2.959 1.205 L 2.967 1.198 L 2.985 1.194 L 2.989 1.209 L 2.970 1.213 L 2.952 1.213 L 2.922 1.209 L 2.870 1.213 L 2.780 1.213 L 2.754 1.213 L 2.672 1.213 L 2.635 1.209 L 2.627 1.216 L 2.623 1.228 L 2.623 1.280 L 2.635 1.343 L 2.638 1.403 L 2.638 1.418 L 2.635 1.422 L 2.635 1.440 L 2.642 1.485 L 2.642 1.493 L 2.631 1.515 L 2.638 1.530 L 2.631 1.541 L 2.627 1.567 L 2.627 1.605 L 2.620 1.638 L 2.616 1.668 L 2.616 1.679 L 2.620 1.731 L 2.608 1.758 L 2.608 1.765 L 2.612 1.769 L 2.612 1.776 L 2.612 1.765 L 2.612 1.754 L 2.620 1.731 L 2.627 1.739 L 2.620 1.754 L 2.620 1.765 L 2.620 1.754 L 2.635 1.746 L 2.627 1.765 L 2.623 1.791 L 2.623 1.911 L 2.635 1.922 L 2.635 1.933 L 2.627 1.944 L 2.627 1.952 L 2.631 1.955 L 2.631 1.967 L 2.635 1.970 L 2.635 1.978 L 2.627 1.981 L 2.631 2.008 L 2.635 2.034 L 2.638 2.037 L 2.638 2.056 L 2.635 2.071 L 2.623 2.075 L 2.620 2.064 L 2.620 1.981 L 2.616 2.000 L 2.620 2.064 L 2.623 2.067 L 2.627 2.078 L 2.631 2.086 L 2.623 2.093 L 2.623 2.131 L 2.631 2.176 L 2.627 2.224 L 2.627 2.235 L 2.631 2.261 L 2.642 2.280 L 2.642 2.302 L 2.635 2.310 L 2.638 2.407 L 2.638 2.433 L 2.635 2.452 L 2.631 2.474 L 2.623 2.489 L 2.616 2.496 L 2.608 2.500 L 2.575 2.500 L 2.608 2.500 L 2.623 2.493 L 2.627 2.485 L 2.631 2.478 L 2.635 2.455 L 2.638 2.437 L 2.638 2.407 L 2.635 2.314 L 2.642 2.306 L 2.642 2.280 L 2.631 2.261 L 2.627 2.235 L 2.627 2.224 L 2.631 2.176 L 2.627 2.134 L 2.623 2.131 L 2.623 2.097 L 2.631 2.090 L 2.635 2.075 L 2.638 2.056 L 2.638 2.037 L 2.635 2.034 L 2.631 2.008 L 2.635 1.989 L 2.635 1.981 L 2.635 1.970 L 2.631 1.955 L 2.627 1.952 L 2.627 1.944 L 2.635 1.933 L 2.635 1.922 L 2.631 1.918 L 2.635 1.907 L 2.642 1.903 L 2.646 1.896 L 2.649 1.888 L 2.653 1.873 L 2.653 1.862 L 2.642 1.866 L 2.638 1.873 L 2.635 1.892 L 2.638 1.877 L 2.642 1.870 L 2.649 1.862 L 2.653 1.873 L 2.649 1.884 L 2.646 1.892 L 2.642 1.899 L 2.631 1.911 L 2.623 1.791 L 2.627 1.765 L 2.631 1.750 L 2.635 1.746 L 2.635 1.739 L 2.627 1.739 L 2.620 1.731 L 2.616 1.679 L 2.616 1.668 L 2.620 1.638 L 2.627 1.605 L 2.627 1.567 L 2.631 1.541 L 2.638 1.534 L 2.638 1.522 L 2.631 1.515 L 2.638 1.508 L 2.638 1.496 L 2.642 1.493 L 2.642 1.485 L 2.635 1.440 L 2.635 1.422 L 2.638 1.418 L 2.638 1.403 L 2.635 1.343 L 2.623 1.280 L 2.623 1.228 L 2.627 1.220 L 2.635 1.213 L 2.676 1.209 L 2.754 1.213 L 2.784 1.213 L 2.870 1.213 L 2.892 1.213 L 2.926 1.209 L 2.952 1.213 L 2.974 1.209 L 2.993 1.213 L 3.000 1.213 L 3.030 1.209 L 3.038 1.209 L 3.075 1.213 L 3.164 1.209 L 3.235 1.202 L 3.358 1.198 L 3.366 1.198 L 3.414 1.198 L 3.437 1.198 L 3.497 1.202 L 3.515 1.194 L 3.523 1.194 L 3.526 1.198 L 3.534 1.198 L 3.538 1.194 L 3.545 1.194 L 3.575 1.194 L 3.594 1.194 L 3.616 1.198 L 3.705 1.198 L 3.713 1.198 L 3.717 1.194 L 3.728 1.194 L 3.717 1.194 L 3.713 1.198 L 3.705 1.198 L 3.616 1.198 L 3.597 1.194 L 3.590 1.198 L 3.582 1.194 L 3.582 1.183 L 3.679 1.187 L 3.728 1.183 L 3.579 1.187 L 3.552 1.187 z" fill="none" stroke="black" stroke-width="0.009" />            <path d="M 2.302 1.183 L 2.299 1.187 L 2.280 1.187 L 2.299 1.187 L 2.302 1.183 L 2.470 1.183 L 2.493 1.194 L 2.489 1.187 L 2.470 1.183 z" fill="none" stroke="black" stroke-width="0.009" />            <path d="M 2.504 1.179 L 2.504 1.187 L 2.500 1.190 L 2.500 1.202 L 2.519 1.216 L 2.526 1.224 L 2.526 1.243 L 2.534 1.254 L 2.537 1.265 L 2.545 1.265 L 2.545 1.254 L 2.537 1.239 L 2.537 1.220 L 2.526 1.224 L 2.504 1.190 L 2.511 1.194 L 2.515 1.198 L 2.530 1.213 L 2.511 1.194 L 2.515 1.179 z" fill="none" stroke="black" stroke-width="0.009" />            <path d="M 2.347 1.172 L 2.291 1.175 L 2.287 1.179 L 2.280 1.179 L 2.287 1.179 L 2.291 1.175 L 2.351 1.172 L 2.414 1.175 L 2.433 1.175 L 2.470 1.172 L 2.485 1.175 L 2.496 1.183 L 2.489 1.175 L 2.474 1.172 z" fill="none" stroke="black" stroke-width="0.009" />            <path d="M 0.015 0.731 L 0.007 0.735 L 0.000 0.739 L 0.007 0.739 L 0.015 0.731 L 0.049 0.731 L 0.063 0.746 L 0.153 0.746 L 0.060 0.743 L 0.049 0.731 z" fill="none" stroke="black" stroke-width="0.009" />            <path d="M 0.216 0.731 L 0.224 0.728 L 0.235 0.735 L 0.261 0.731 L 0.276 0.739 L 0.265 0.735 L 0.261 0.731 L 0.235 0.735 L 0.224 0.728 z" fill="none" stroke="black" stroke-width="0.009" />            <path d="M 1.064 0.575 L 1.064 0.586 L 1.075 0.601 L 1.067 0.605 L 1.067 0.616 L 1.075 0.616 L 1.090 0.631 L 1.082 0.646 L 1.067 0.642 L 1.086 0.646 L 1.097 0.653 L 1.108 0.657 L 1.119 0.657 L 1.123 0.653 L 1.134 0.653 L 1.134 0.642 L 1.127 0.642 L 1.131 0.653 L 1.119 0.653 L 1.116 0.657 L 1.108 0.657 L 1.101 0.653 L 1.093 0.649 L 1.097 0.631 L 1.097 0.638 L 1.105 0.642 L 1.112 0.646 L 1.097 0.638 L 1.105 0.631 L 1.112 0.634 L 1.105 0.631 L 1.093 0.631 L 1.082 0.612 L 1.071 0.612 L 1.071 0.605 L 1.078 0.601 L 1.067 0.590 z" fill="none" stroke="black" stroke-width="0.009" />            <path d="M 1.224 0.556 L 1.220 0.586 L 1.216 0.593 L 1.213 0.601 L 1.209 0.582 L 1.209 0.601 L 1.216 0.601 L 1.216 0.593 L 1.220 0.590 L 1.220 0.563 z" fill="none" stroke="black" stroke-width="0.009" />            <path d="M 1.314 0.507 L 1.306 0.519 L 1.321 0.530 L 1.336 0.526 L 1.336 0.519 L 1.325 0.530 L 1.317 0.511 L 1.328 0.519 L 1.321 0.511 z" fill="none" stroke="black" stroke-width="0.009" />            <path d="M 1.287 0.493 L 1.269 0.507 L 1.261 0.500 L 1.254 0.500 L 1.243 0.511 L 1.246 0.522 L 1.254 0.522 L 1.243 0.519 L 1.243 0.511 L 1.250 0.504 L 1.261 0.500 L 1.269 0.507 L 1.276 0.507 L 1.284 0.500 L 1.287 0.493 L 1.291 0.500 L 1.295 0.496 z" fill="none" stroke="black" stroke-width="0.009" />            <path d="M 1.440 0.463 L 1.433 0.466 L 1.437 0.474 L 1.440 0.474 L 1.440 0.485 L 1.414 0.485 L 1.407 0.470 L 1.399 0.470 L 1.396 0.478 L 1.411 0.485 L 1.467 0.489 L 1.504 0.489 L 1.511 0.481 L 1.519 0.481 L 1.530 0.485 L 1.541 0.493 L 1.560 0.489 L 1.564 0.481 L 1.552 0.474 L 1.560 0.485 L 1.552 0.493 L 1.541 0.493 L 1.522 0.485 L 1.515 0.481 L 1.511 0.481 L 1.504 0.489 L 1.467 0.489 L 1.452 0.485 L 1.433 0.470 L 1.452 0.466 L 1.463 0.478 L 1.478 0.481 L 1.478 0.466 L 1.496 0.466 L 1.474 0.466 L 1.467 0.478 L 1.459 0.474 L 1.452 0.466 z" fill="none" stroke="black" stroke-width="0.009" />            <path d="M 1.679 0.455 L 1.679 0.459 L 1.675 0.463 L 1.661 0.474 L 1.653 0.474 L 1.620 0.470 L 1.571 0.474 L 1.586 0.485 L 1.578 0.485 L 1.571 0.481 L 1.631 0.485 L 1.642 0.496 L 1.664 0.493 L 1.642 0.496 L 1.634 0.489 L 1.642 0.485 L 1.646 0.481 L 1.653 0.481 L 1.661 0.481 L 1.679 0.485 L 1.664 0.481 L 1.664 0.474 L 1.672 0.466 L 1.675 0.478 L 1.687 0.466 L 1.690 0.459 L 1.687 0.466 L 1.679 0.474 L 1.672 0.466 L 1.687 0.452 z" fill="none" stroke="black" stroke-width="0.009" />            <path d="M 1.474 0.448 L 1.474 0.455 L 1.485 0.459 L 1.478 0.452 L 1.485 0.448 L 1.504 0.466 L 1.511 0.470 L 1.545 0.474 L 1.537 0.481 L 1.545 0.470 L 1.511 0.470 L 1.489 0.448 z" fill="none" stroke="black" stroke-width="0.009" />            <path d="M 1.131 0.452 L 1.131 0.463 L 1.142 0.474 L 1.157 0.474 L 1.164 0.481 L 1.179 0.478 L 1.168 0.481 L 1.149 0.474 L 1.142 0.470 L 1.153 0.459 L 1.142 0.455 L 1.142 0.448 z" fill="none" stroke="black" stroke-width="0.009" />            <path d="M 1.373 0.444 L 1.358 0.452 L 1.340 0.452 L 1.343 0.463 L 1.358 0.463 L 1.373 0.455 L 1.396 0.455 L 1.403 0.452 L 1.403 0.444 z" fill="none" stroke="black" stroke-width="0.009" />            <path d="M 1.616 0.433 L 1.605 0.440 L 1.597 0.440 L 1.578 0.452 L 1.586 0.459 L 1.597 0.452 L 1.608 0.452 L 1.616 0.448 L 1.627 0.440 L 1.620 0.440 L 1.612 0.448 L 1.605 0.452 L 1.586 0.459 L 1.586 0.448 L 1.593 0.444 L 1.616 0.433 L 1.623 0.433 z" fill="none" stroke="black" stroke-width="0.009" />            <path d="M 1.761 0.425 L 1.758 0.437 L 1.761 0.463 L 1.754 0.470 L 1.758 0.478 L 1.765 0.481 L 1.773 0.470 L 1.773 0.444 L 1.769 0.440 L 1.769 0.425 z" fill="none" stroke="black" stroke-width="0.009" />            <path d="M 1.254 0.425 L 1.269 0.429 L 1.280 0.433 L 1.287 0.437 L 1.295 0.440 L 1.287 0.437 L 1.284 0.433 L 1.269 0.429 z" fill="none" stroke="black" stroke-width="0.009" />            <path d="M 1.717 0.418 L 1.709 0.429 L 1.702 0.429 L 1.702 0.437 L 1.717 0.440 L 1.724 0.448 L 1.724 0.459 L 1.724 0.485 L 1.731 0.493 L 1.731 0.500 L 1.739 0.507 L 1.754 0.507 L 1.765 0.515 L 1.784 0.519 L 1.810 0.522 L 1.821 0.522 L 1.825 0.519 L 1.832 0.519 L 1.836 0.522 L 1.843 0.522 L 1.847 0.519 L 1.855 0.519 L 1.873 0.526 L 1.888 0.526 L 1.948 0.519 L 1.955 0.519 L 1.993 0.526 L 2.019 0.526 L 2.030 0.519 L 2.060 0.515 L 2.060 0.511 L 2.075 0.493 L 2.078 0.474 L 2.075 0.455 L 2.078 0.440 L 2.071 0.433 L 2.067 0.418 L 2.071 0.425 L 2.071 0.437 L 2.075 0.455 L 2.078 0.474 L 2.075 0.489 L 2.067 0.500 L 2.060 0.511 L 2.052 0.519 L 2.030 0.519 L 2.019 0.526 L 1.993 0.526 L 1.970 0.519 L 1.959 0.519 L 1.952 0.522 L 1.963 0.511 L 1.967 0.500 L 1.963 0.466 L 1.970 0.459 L 1.978 0.474 L 1.978 0.496 L 1.978 0.474 L 1.974 0.470 L 1.974 0.459 L 1.959 0.463 L 1.967 0.470 L 1.967 0.496 L 1.963 0.504 L 1.944 0.511 L 1.937 0.504 L 1.948 0.515 L 1.940 0.522 L 1.888 0.526 L 1.873 0.526 L 1.855 0.519 L 1.847 0.519 L 1.843 0.522 L 1.836 0.522 L 1.832 0.519 L 1.825 0.519 L 1.821 0.522 L 1.810 0.522 L 1.784 0.519 L 1.769 0.515 L 1.758 0.511 L 1.743 0.507 L 1.731 0.496 L 1.728 0.489 L 1.724 0.481 L 1.720 0.440 L 1.713 0.437 L 1.713 0.429 z" fill="none" stroke="black" stroke-width="0.009" />            <path d="M 1.735 0.407 L 1.724 0.422 L 1.739 0.407 L 1.743 0.414 L 1.735 0.422 L 1.731 0.429 L 1.731 0.444 L 1.739 0.452 L 1.739 0.466 L 1.743 0.474 L 1.750 0.481 L 1.750 0.489 L 1.754 0.496 L 1.769 0.504 L 1.806 0.507 L 1.828 0.504 L 1.862 0.507 L 1.866 0.515 L 1.911 0.507 L 1.929 0.515 L 1.926 0.507 L 1.911 0.507 L 1.866 0.511 L 1.825 0.504 L 1.806 0.507 L 1.769 0.504 L 1.761 0.500 L 1.750 0.489 L 1.750 0.478 L 1.743 0.470 L 1.739 0.459 L 1.731 0.440 L 1.731 0.429 L 1.743 0.418 L 1.743 0.407 z" fill="none" stroke="black" stroke-width="0.009" />            <path d="M 1.228 0.399 L 1.228 0.455 L 1.224 0.459 L 1.220 0.466 L 1.209 0.459 L 1.198 0.463 L 1.209 0.459 L 1.216 0.463 L 1.220 0.478 L 1.213 0.489 L 1.209 0.507 L 1.209 0.526 L 1.202 0.541 L 1.205 0.552 L 1.202 0.575 L 1.194 0.586 L 1.198 0.608 L 1.194 0.627 L 1.190 0.642 L 1.175 0.660 L 1.168 0.664 L 1.161 0.668 L 1.153 0.668 L 1.134 0.672 L 1.123 0.672 L 1.134 0.672 L 1.142 0.683 L 1.149 0.672 L 1.164 0.664 L 1.175 0.660 L 1.175 0.672 L 1.175 0.683 L 1.161 0.698 L 1.153 0.698 L 1.134 0.716 L 1.127 0.720 L 1.123 0.713 L 1.116 0.709 L 1.131 0.683 L 1.127 0.694 L 1.119 0.687 L 1.108 0.694 L 1.119 0.687 L 1.123 0.702 L 1.112 0.709 L 1.105 0.720 L 1.082 0.720 L 1.075 0.728 L 1.060 0.724 L 1.064 0.690 L 1.052 0.679 L 1.052 0.672 L 1.060 0.627 L 1.052 0.597 L 1.052 0.586 L 1.056 0.582 L 1.056 0.571 L 1.056 0.578 L 1.052 0.582 L 1.049 0.593 L 1.056 0.601 L 1.060 0.631 L 1.052 0.672 L 1.052 0.683 L 1.064 0.694 L 1.060 0.724 L 1.075 0.728 L 1.086 0.720 L 1.108 0.720 L 1.116 0.709 L 1.127 0.720 L 1.142 0.713 L 1.153 0.698 L 1.161 0.698 L 1.168 0.705 L 1.164 0.698 L 1.175 0.683 L 1.179 0.660 L 1.190 0.649 L 1.194 0.631 L 1.198 0.605 L 1.194 0.590 L 1.202 0.575 L 1.205 0.552 L 1.202 0.541 L 1.209 0.530 L 1.209 0.507 L 1.213 0.493 L 1.228 0.455 z" fill="none" stroke="black" stroke-width="0.009" />            <path d="M 2.023 0.373 L 2.015 0.377 L 2.015 0.407 L 2.019 0.422 L 2.023 0.433 L 2.026 0.440 L 2.034 0.448 L 2.034 0.455 L 2.030 0.481 L 2.037 0.496 L 2.030 0.504 L 2.011 0.481 L 2.004 0.481 L 2.000 0.496 L 2.011 0.500 L 2.004 0.493 L 2.008 0.481 L 2.011 0.489 L 2.019 0.493 L 2.023 0.496 L 2.026 0.504 L 2.019 0.507 L 2.015 0.511 L 1.985 0.507 L 1.970 0.511 L 1.985 0.507 L 2.019 0.511 L 2.034 0.507 L 2.037 0.500 L 2.037 0.485 L 2.045 0.493 L 2.037 0.470 L 2.041 0.440 L 2.030 0.418 L 2.026 0.407 z" fill="none" stroke="black" stroke-width="0.009" />            <path d="M 1.396 0.310 L 1.384 0.313 L 1.377 0.317 L 1.373 0.321 L 1.343 0.351 L 1.340 0.355 L 1.336 0.366 L 1.328 0.373 L 1.325 0.373 L 1.317 0.381 L 1.317 0.388 L 1.314 0.396 L 1.306 0.403 L 1.299 0.403 L 1.314 0.407 L 1.310 0.410 L 1.314 0.422 L 1.310 0.425 L 1.310 0.437 L 1.314 0.474 L 1.306 0.481 L 1.291 0.463 L 1.295 0.470 L 1.287 0.474 L 1.280 0.478 L 1.269 0.470 L 1.261 0.459 L 1.250 0.459 L 1.258 0.459 L 1.269 0.470 L 1.265 0.478 L 1.254 0.489 L 1.239 0.496 L 1.231 0.489 L 1.231 0.478 L 1.239 0.466 L 1.243 0.452 L 1.243 0.440 L 1.235 0.399 L 1.243 0.440 L 1.243 0.448 L 1.239 0.466 L 1.231 0.485 L 1.224 0.496 L 1.224 0.504 L 1.228 0.496 L 1.231 0.489 L 1.239 0.496 L 1.231 0.504 L 1.228 0.522 L 1.224 0.530 L 1.228 0.515 L 1.231 0.507 L 1.239 0.500 L 1.239 0.496 L 1.243 0.493 L 1.250 0.489 L 1.261 0.485 L 1.265 0.493 L 1.272 0.489 L 1.280 0.485 L 1.272 0.489 L 1.261 0.485 L 1.265 0.478 L 1.272 0.470 L 1.280 0.478 L 1.295 0.474 L 1.302 0.481 L 1.314 0.478 L 1.317 0.437 L 1.325 0.444 L 1.325 0.481 L 1.321 0.489 L 1.310 0.493 L 1.302 0.496 L 1.302 0.507 L 1.287 0.522 L 1.265 0.526 L 1.254 0.530 L 1.246 0.534 L 1.239 0.541 L 1.235 0.552 L 1.235 0.575 L 1.231 0.593 L 1.224 0.616 L 1.220 0.627 L 1.209 0.642 L 1.209 0.649 L 1.205 0.657 L 1.198 0.664 L 1.194 0.672 L 1.190 0.679 L 1.190 0.690 L 1.183 0.702 L 1.168 0.716 L 1.161 0.720 L 1.153 0.724 L 1.127 0.731 L 1.093 0.735 L 1.086 0.731 L 1.067 0.743 L 1.056 0.743 L 1.037 0.754 L 1.026 0.758 L 1.008 0.758 L 1.000 0.750 L 1.022 0.746 L 1.034 0.743 L 1.041 0.735 L 1.041 0.698 L 1.037 0.694 L 1.037 0.660 L 1.045 0.578 L 1.041 0.541 L 1.041 0.522 L 1.060 0.515 L 1.060 0.526 L 1.056 0.530 L 1.056 0.537 L 1.056 0.545 L 1.067 0.556 L 1.075 0.571 L 1.071 0.575 L 1.075 0.586 L 1.090 0.601 L 1.090 0.612 L 1.101 0.623 L 1.112 0.627 L 1.119 0.627 L 1.105 0.623 L 1.093 0.612 L 1.090 0.605 L 1.090 0.597 L 1.082 0.590 L 1.078 0.590 L 1.078 0.567 L 1.090 0.578 L 1.090 0.586 L 1.093 0.578 L 1.082 0.567 L 1.071 0.563 L 1.067 0.552 L 1.056 0.545 L 1.060 0.541 L 1.056 0.530 L 1.060 0.526 L 1.060 0.515 L 1.067 0.507 L 1.075 0.504 L 1.082 0.507 L 1.086 0.552 L 1.086 0.507 L 1.071 0.500 L 1.064 0.493 L 1.064 0.478 L 1.052 0.478 L 1.045 0.485 L 1.041 0.493 L 1.041 0.500 L 1.045 0.515 L 1.041 0.541 L 1.045 0.578 L 1.037 0.660 L 1.037 0.694 L 1.041 0.698 L 1.041 0.731 L 1.030 0.743 L 1.022 0.746 L 0.981 0.746 L 0.952 0.746 L 0.944 0.746 L 0.925 0.743 L 0.922 0.746 L 0.903 0.743 L 0.791 0.743 L 0.702 0.743 L 0.683 0.746 L 0.675 0.746 L 0.672 0.743 L 0.664 0.743 L 0.608 0.743 L 0.578 0.746 L 0.541 0.739 L 0.530 0.739 L 0.410 0.746 L 0.392 0.743 L 0.388 0.746 L 0.366 0.743 L 0.355 0.746 L 0.351 0.735 L 0.343 0.746 L 0.313 0.743 L 0.295 0.743 L 0.261 0.750 L 0.254 0.750 L 0.246 0.746 L 0.254 0.750 L 0.261 0.750 L 0.299 0.743 L 0.313 0.743 L 0.351 0.743 L 0.358 0.743 L 0.366 0.743 L 0.388 0.746 L 0.392 0.743 L 0.410 0.746 L 0.530 0.739 L 0.541 0.739 L 0.545 0.746 L 0.560 0.746 L 0.563 0.743 L 0.575 0.743 L 0.582 0.746 L 0.590 0.754 L 0.578 0.758 L 0.571 0.758 L 0.522 0.758 L 0.500 0.758 L 0.489 0.758 L 0.485 0.754 L 0.470 0.754 L 0.399 0.754 L 0.209 0.746 L 0.228 0.746 L 0.205 0.746 L 0.202 0.754 L 0.198 0.750 L 0.183 0.754 L 0.160 0.750 L 0.052 0.754 L 0.041 0.746 L 0.022 0.746 L 0.000 0.750 L 0.049 0.750 L 0.052 0.754 L 0.164 0.750 L 0.175 0.750 L 0.205 0.758 L 0.399 0.754 L 0.470 0.754 L 0.485 0.754 L 0.489 0.758 L 0.500 0.758 L 0.526 0.758 L 0.567 0.758 L 0.590 0.754 L 0.698 0.754 L 0.985 0.754 L 0.996 0.754 L 1.004 0.754 L 1.026 0.758 L 1.037 0.754 L 1.049 0.750 L 1.060 0.743 L 1.071 0.739 L 1.082 0.735 L 1.097 0.731 L 1.127 0.731 L 1.153 0.724 L 1.164 0.720 L 1.175 0.713 L 1.183 0.705 L 1.187 0.698 L 1.190 0.690 L 1.190 0.683 L 1.194 0.675 L 1.205 0.660 L 1.220 0.627 L 1.231 0.593 L 1.235 0.575 L 1.235 0.552 L 1.239 0.545 L 1.250 0.534 L 1.258 0.530 L 1.265 0.526 L 1.276 0.526 L 1.287 0.522 L 1.295 0.519 L 1.302 0.511 L 1.302 0.500 L 1.310 0.493 L 1.321 0.493 L 1.321 0.485 L 1.325 0.481 L 1.321 0.437 L 1.321 0.414 L 1.325 0.392 L 1.340 0.377 L 1.369 0.351 L 1.373 0.358 L 1.377 0.366 L 1.377 0.358 L 1.369 0.351 L 1.384 0.351 L 1.384 0.366 L 1.381 0.347 L 1.396 0.340 L 1.414 0.325 L 1.411 0.313 L 1.399 0.317 L 1.381 0.336 L 1.369 0.332 L 1.373 0.325 L 1.384 0.313 L 1.392 0.313 L 1.399 0.310 L 1.407 0.302 z" fill="none" stroke="black" stroke-width="0.009" />            <path d="M 1.459 0.269 L 1.448 0.272 L 1.437 0.276 L 1.429 0.284 L 1.422 0.287 L 1.437 0.280 L 1.455 0.284 L 1.467 0.280 L 1.470 0.276 L 1.478 0.276 L 1.470 0.276 L 1.467 0.280 L 1.452 0.284 L 1.437 0.280 L 1.444 0.276 L 1.448 0.272 L 1.459 0.269 L 1.474 0.269 z" fill="none" stroke="black" stroke-width="0.009" />            <path d="M 2.843 0.209 L 2.847 0.216 L 2.817 0.216 L 2.802 0.216 L 2.773 0.220 L 2.765 0.220 L 2.761 0.216 L 2.750 0.216 L 2.687 0.224 L 2.679 0.224 L 2.676 0.220 L 2.668 0.220 L 2.631 0.228 L 2.623 0.228 L 2.608 0.224 L 2.605 0.228 L 2.586 0.224 L 2.463 0.224 L 2.407 0.224 L 2.396 0.224 L 2.392 0.228 L 2.373 0.224 L 2.340 0.224 L 2.329 0.228 L 2.325 0.224 L 2.317 0.224 L 2.314 0.228 L 2.306 0.228 L 2.209 0.228 L 2.198 0.228 L 2.194 0.224 L 2.183 0.224 L 2.172 0.231 L 2.108 0.224 L 2.082 0.224 L 2.064 0.243 L 2.064 0.250 L 2.060 0.276 L 2.067 0.295 L 2.064 0.388 L 2.064 0.396 L 2.067 0.407 L 2.075 0.418 L 2.075 0.410 L 2.067 0.403 L 2.064 0.396 L 2.064 0.291 L 2.064 0.250 L 2.067 0.243 L 2.082 0.228 L 2.112 0.224 L 2.168 0.228 L 2.176 0.235 L 2.176 0.239 L 2.187 0.243 L 2.187 0.235 L 2.183 0.243 L 2.176 0.235 L 2.187 0.224 L 2.194 0.224 L 2.209 0.228 L 2.306 0.228 L 2.314 0.228 L 2.317 0.224 L 2.325 0.224 L 2.329 0.228 L 2.340 0.224 L 2.377 0.224 L 2.392 0.228 L 2.396 0.224 L 2.407 0.224 L 2.590 0.224 L 2.605 0.228 L 2.608 0.224 L 2.623 0.228 L 2.631 0.228 L 2.668 0.220 L 2.676 0.220 L 2.679 0.224 L 2.687 0.224 L 2.750 0.216 L 2.761 0.216 L 2.765 0.220 L 2.780 0.216 L 2.873 0.220 L 2.851 0.220 z" fill="none" stroke="black" stroke-width="0.009" />            <path d="M 1.985 0.198 L 1.985 0.205 L 2.008 0.205 L 2.026 0.209 L 2.041 0.213 L 2.049 0.216 L 2.034 0.213 L 2.030 0.209 L 2.011 0.209 L 1.989 0.202 L 2.011 0.198 L 2.015 0.202 L 2.037 0.202 L 2.041 0.205 L 2.052 0.205 L 2.045 0.205 L 2.041 0.202 L 2.015 0.198 z" fill="none" stroke="black" stroke-width="0.009" />            <path d="M 2.795 0.187 L 2.776 0.194 L 2.620 0.194 L 2.612 0.190 L 2.567 0.194 L 2.560 0.202 L 2.549 0.202 L 2.459 0.202 L 2.444 0.198 L 2.429 0.205 L 2.422 0.205 L 2.414 0.202 L 2.407 0.202 L 2.366 0.202 L 2.347 0.205 L 2.332 0.202 L 2.306 0.205 L 2.243 0.205 L 2.205 0.213 L 2.190 0.213 L 2.183 0.213 L 2.168 0.213 L 2.108 0.209 L 2.064 0.213 L 2.056 0.220 L 2.052 0.246 L 2.052 0.355 L 2.056 0.358 L 2.052 0.466 L 2.056 0.481 L 2.052 0.485 L 2.056 0.500 L 2.045 0.504 L 2.049 0.511 L 2.056 0.500 L 2.052 0.485 L 2.056 0.481 L 2.052 0.466 L 2.056 0.358 L 2.052 0.355 L 2.052 0.246 L 2.060 0.216 L 2.067 0.213 L 2.108 0.209 L 2.168 0.213 L 2.183 0.213 L 2.209 0.213 L 2.246 0.205 L 2.317 0.209 L 2.336 0.202 L 2.347 0.205 L 2.366 0.202 L 2.407 0.202 L 2.414 0.202 L 2.422 0.205 L 2.429 0.205 L 2.444 0.198 L 2.459 0.202 L 2.549 0.202 L 2.564 0.202 L 2.571 0.194 L 2.612 0.190 L 2.620 0.194 L 2.780 0.194 L 2.795 0.187 L 2.802 0.187 L 2.821 0.187 L 2.829 0.187 L 2.862 0.190 L 2.866 0.187 L 2.899 0.190 L 2.918 0.190 L 3.026 0.187 L 3.135 0.190 L 3.161 0.198 L 3.172 0.198 L 3.250 0.198 L 3.258 0.198 L 3.269 0.194 L 3.314 0.202 L 3.306 0.213 L 3.280 0.213 L 3.228 0.213 L 3.217 0.213 L 3.209 0.202 L 3.198 0.216 L 3.191 0.216 L 3.038 0.216 L 2.985 0.216 L 2.974 0.216 L 2.970 0.213 L 2.952 0.216 L 2.944 0.216 L 2.929 0.213 L 2.899 0.220 L 2.888 0.213 L 2.896 0.202 L 2.888 0.209 L 2.873 0.198 L 2.881 0.202 L 2.888 0.209 L 2.881 0.220 L 2.892 0.220 L 2.899 0.220 L 2.929 0.213 L 2.944 0.216 L 2.952 0.216 L 2.970 0.213 L 2.974 0.216 L 2.985 0.216 L 3.041 0.216 L 3.191 0.216 L 3.198 0.216 L 3.213 0.209 L 3.228 0.213 L 3.302 0.209 L 3.403 0.216 L 3.411 0.216 L 3.500 0.209 L 3.526 0.209 L 3.605 0.209 L 3.638 0.209 L 3.653 0.213 L 3.709 0.209 L 3.713 0.205 L 3.728 0.205 L 3.709 0.205 L 3.705 0.209 L 3.649 0.213 L 3.638 0.209 L 3.601 0.209 L 3.530 0.213 L 3.511 0.205 L 3.497 0.213 L 3.407 0.216 L 3.344 0.209 L 3.332 0.209 L 3.329 0.202 L 3.429 0.202 L 3.437 0.202 L 3.515 0.194 L 3.541 0.198 L 3.552 0.198 L 3.605 0.194 L 3.623 0.202 L 3.635 0.194 L 3.664 0.198 L 3.687 0.198 L 3.694 0.190 L 3.713 0.190 L 3.717 0.194 L 3.728 0.194 L 3.717 0.194 L 3.713 0.190 L 3.694 0.190 L 3.683 0.198 L 3.664 0.198 L 3.631 0.198 L 3.608 0.198 L 3.552 0.198 L 3.541 0.198 L 3.515 0.194 L 3.437 0.202 L 3.429 0.202 L 3.314 0.202 L 3.269 0.194 L 3.258 0.198 L 3.250 0.198 L 3.172 0.198 L 3.161 0.198 L 3.135 0.190 L 3.026 0.187 L 2.918 0.190 L 2.899 0.190 L 2.866 0.187 L 2.862 0.190 L 2.829 0.187 L 2.821 0.187 L 2.802 0.187 z" fill="none" stroke="black" stroke-width="0.009" />            <path d="M 0.000 0.000 L 3.732 0.000 L 3.732 3.732 L 0.000 3.732 L 0.000 0.000 z" fill="none" stroke="black" stroke-width="0.009" /></svg>