<?xml version="1.0" standalone="no"?>
<!DOCTYPE svg PUBLIC "-//W3C//DTD SVG 20010904//EN"
 "http://www.w3.org/TR/2001/REC-SVG-20010904/DTD/svg10.dtd">
<svg version="1.0" xmlns="http://www.w3.org/2000/svg"
 width="900.000000pt" height="900.000000pt" viewBox="0 0 900.000000 900.000000"
 preserveAspectRatio="xMidYMid meet">
<metadata>
Created by potrace 1.10, written by Peter Selinger 2001-2011
</metadata>
<g transform="translate(0.000000,900.000000) scale(0.100000,-0.100000)"
fill="#FFF" stroke="none">
<path d="M5480 7895 c-84 -17 -183 -27 -241 -26 -33 0 -49 -4 -53 -14 -4 -10
-20 -15 -50 -15 -30 0 -46 -5 -50 -15 -3 -9 -18 -15 -40 -15 -21 0 -36 -6 -40
-15 -3 -8 -16 -15 -29 -15 -14 0 -30 -7 -37 -15 -7 -8 -19 -15 -26 -15 -8 0
-22 -4 -32 -9 -9 -5 -42 -21 -72 -35 -84 -41 -154 -80 -165 -92 -17 -18 -92
-74 -100 -74 -12 0 -195 -190 -195 -203 0 -7 -14 -26 -31 -43 -17 -16 -40 -45
-52 -64 -12 -19 -30 -44 -40 -55 -18 -20 -53 -89 -97 -190 -11 -27 -28 -63
-35 -78 -8 -16 -15 -39 -15 -52 0 -12 -7 -28 -15 -35 -8 -7 -15 -27 -15 -45 0
-18 -7 -38 -15 -45 -9 -8 -15 -30 -15 -60 0 -29 -6 -52 -14 -59 -12 -10 -14
-84 -12 -469 2 -332 6 -457 15 -460 6 -2 11 -26 11 -58 0 -39 4 -56 15 -60 10
-4 15 -20 15 -49 0 -26 6 -47 15 -55 8 -7 15 -18 15 -24 0 -6 18 -45 40 -86
22 -41 45 -87 51 -102 6 -16 15 -28 20 -28 5 0 9 -4 9 -9 0 -11 44 -65 88
-106 17 -17 32 -37 32 -43 0 -7 4 -12 9 -12 4 0 19 -10 33 -22 61 -55 91 -78
99 -78 6 0 23 -10 39 -22 30 -21 40 -60 20 -73 -5 -3 -287 -6 -625 -6 -541 1
-620 -1 -647 -15 -20 -10 -42 -14 -63 -10 -25 5 -34 3 -39 -10 -4 -11 -16 -15
-41 -13 -19 2 -40 -2 -47 -9 -6 -6 -19 -12 -28 -12 -9 0 -37 -11 -61 -25 -24
-14 -51 -28 -59 -32 -8 -4 -33 -19 -54 -35 -21 -15 -45 -28 -52 -28 -7 0 -17
-6 -21 -13 -4 -8 -21 -22 -38 -33 -37 -23 -61 -46 -105 -104 -19 -25 -54 -64
-77 -88 -24 -23 -43 -46 -43 -51 0 -4 -14 -27 -30 -50 -17 -23 -28 -46 -25
-51 3 -4 -7 -23 -22 -41 -15 -17 -28 -37 -29 -44 -1 -6 -11 -31 -23 -55 -11
-24 -21 -51 -21 -61 0 -9 -7 -22 -15 -29 -8 -7 -15 -20 -15 -30 0 -10 -7 -23
-15 -30 -8 -7 -15 -23 -15 -35 0 -12 -7 -28 -15 -35 -8 -7 -15 -25 -15 -41 0
-16 -4 -29 -10 -29 -5 0 -10 -13 -10 -29 0 -16 -7 -34 -15 -41 -9 -7 -13 -20
-10 -27 2 -8 -6 -38 -19 -66 -13 -29 -27 -62 -31 -74 -3 -13 -11 -23 -16 -23
-5 0 -9 -13 -9 -29 0 -16 -7 -34 -15 -41 -8 -7 -15 -20 -15 -30 0 -10 -7 -23
-15 -30 -8 -7 -15 -25 -15 -40 0 -15 -6 -30 -14 -33 -7 -3 -16 -20 -18 -39 -8
-51 -39 -162 -49 -172 -5 -6 -9 -17 -9 -25 0 -9 -7 -29 -15 -45 -8 -15 -15
-50 -15 -77 0 -45 5 -61 31 -109 5 -8 15 -28 23 -45 30 -64 165 -165 221 -165
13 0 28 -7 35 -15 18 -22 307 -22 336 0 10 8 31 15 47 15 15 0 35 4 45 10 9 5
37 18 62 28 69 29 72 31 119 57 24 14 48 25 52 25 4 0 28 14 52 30 25 17 47
30 50 30 3 0 21 14 39 30 18 17 36 30 40 30 6 0 63 51 111 98 100 99 215 223
227 244 8 15 27 42 42 60 59 71 98 127 98 141 0 8 7 17 15 21 8 3 15 16 15 29
0 14 6 30 14 36 8 7 18 25 21 41 3 16 13 34 21 41 8 6 14 22 14 35 0 12 5 26
10 29 21 13 11 104 -15 145 -28 44 -54 55 -131 54 -64 0 -105 -28 -134 -92
-12 -26 -26 -55 -31 -64 -5 -10 -9 -25 -9 -34 0 -18 -45 -100 -67 -122 -7 -7
-13 -17 -13 -22 0 -12 -66 -106 -102 -145 -15 -16 -47 -52 -70 -79 -24 -27
-70 -69 -103 -95 -33 -25 -76 -62 -96 -81 -52 -50 -90 -77 -166 -116 -38 -20
-72 -40 -77 -45 -6 -5 -16 -9 -23 -9 -7 0 -37 -12 -66 -26 -42 -22 -69 -27
-145 -30 -98 -4 -124 4 -164 51 -20 23 -25 111 -7 117 6 2 15 30 21 62 5 32
20 78 33 103 14 24 25 52 25 62 0 10 7 24 15 31 8 7 15 20 15 30 0 10 7 23 15
30 8 7 15 25 15 40 0 16 7 30 15 34 9 3 15 18 15 34 0 16 7 35 15 42 8 7 15
23 15 35 0 13 7 26 16 29 9 4 13 13 10 23 -6 20 8 64 42 132 12 25 22 52 22
62 0 9 7 22 15 29 8 7 15 19 15 27 0 13 15 48 41 93 5 8 12 22 15 30 8 20 42
89 60 123 8 15 19 27 25 27 5 0 9 6 9 13 0 15 170 197 184 197 4 0 25 12 45
28 50 38 75 51 140 74 126 44 187 59 226 54 24 -3 50 1 65 9 39 22 3986 21
4014 0 11 -8 41 -15 67 -15 26 0 51 -4 54 -10 3 -5 20 -10 37 -10 36 0 91 -28
171 -87 31 -24 60 -43 62 -43 22 0 155 -158 155 -184 0 -9 5 -16 10 -16 6 0
10 -8 10 -19 0 -10 7 -24 15 -31 8 -7 15 -27 15 -45 0 -18 7 -38 15 -45 22
-18 21 -286 0 -314 -8 -11 -15 -39 -15 -62 0 -28 -5 -44 -15 -48 -10 -3 -15
-19 -15 -45 0 -22 -4 -42 -9 -45 -4 -3 -11 -26 -15 -52 -3 -25 -14 -63 -25
-83 -10 -20 -27 -62 -36 -93 -9 -32 -21 -60 -26 -64 -5 -3 -9 -18 -9 -33 0
-16 -7 -34 -15 -41 -8 -7 -15 -28 -15 -47 0 -19 -7 -41 -15 -49 -8 -9 -15 -27
-15 -40 0 -14 -7 -32 -15 -40 -8 -8 -11 -22 -8 -30 7 -19 -15 -92 -35 -116 -8
-9 -11 -22 -7 -28 4 -6 0 -22 -9 -35 -9 -13 -16 -33 -16 -43 0 -10 -7 -27 -15
-38 -8 -10 -15 -29 -15 -40 0 -12 -7 -27 -15 -34 -8 -7 -15 -25 -15 -40 0 -15
-7 -33 -15 -40 -8 -7 -15 -27 -15 -44 0 -18 -4 -36 -9 -41 -15 -18 -31 -124
-22 -148 5 -12 23 -36 39 -54 26 -28 34 -31 71 -26 23 3 44 10 47 14 3 5 25 9
49 9 27 0 45 5 48 14 13 33 240 33 268 0 6 -8 18 -14 26 -14 17 0 66 -37 118
-87 50 -49 115 -174 115 -222 0 -22 7 -46 15 -55 21 -21 21 -168 0 -186 -10
-8 -15 -30 -15 -61 0 -26 -4 -51 -10 -54 -5 -3 -10 -15 -10 -26 0 -20 -48
-116 -66 -134 -6 -5 -15 -17 -20 -26 -19 -35 -167 -188 -197 -204 -18 -9 -52
-29 -77 -45 -25 -16 -55 -29 -68 -29 -13 -1 -30 -8 -38 -16 -9 -8 -27 -15 -42
-15 -15 0 -36 -7 -46 -15 -27 -20 -191 -20 -226 0 -14 8 -44 14 -66 15 -28 0
-44 5 -48 15 -3 8 -17 15 -31 15 -14 0 -28 7 -31 15 -4 8 -15 15 -26 15 -17 0
-73 51 -155 141 -38 43 -103 169 -115 224 -18 84 -28 241 -19 305 11 82 3 232
-13 245 -7 6 -15 18 -19 27 -3 9 -21 25 -39 35 -31 16 -89 17 -823 19 -434 0
-818 2 -852 2 l-61 2 -64 77 c-126 152 -196 219 -277 262 -14 8 -27 18 -29 23
-2 4 -12 8 -22 8 -9 0 -48 16 -86 35 -37 19 -79 35 -93 35 -13 0 -33 7 -42 16
-27 24 -447 24 -481 0 -12 -9 -32 -16 -44 -16 -12 0 -27 -7 -34 -15 -7 -8 -23
-15 -36 -15 -13 0 -24 -4 -24 -10 0 -5 -11 -10 -24 -10 -14 0 -28 -4 -31 -10
-3 -5 -30 -21 -58 -35 -51 -24 -124 -89 -219 -194 -27 -29 -48 -56 -48 -59 0
-4 -17 -27 -38 -51 l-37 -43 -963 -1 -962 -1 -31 -25 c-57 -48 -62 -180 -8
-233 l27 -28 908 0 c499 0 911 -3 915 -7 5 -5 10 -75 12 -158 4 -151 16 -218
55 -322 11 -28 17 -54 15 -57 -8 -8 26 -72 82 -155 29 -44 179 -201 191 -201
3 0 23 -12 43 -27 48 -37 77 -53 96 -53 9 0 18 -7 22 -15 3 -9 13 -15 22 -14
9 1 38 -8 64 -19 27 -12 58 -22 70 -22 12 0 35 -7 51 -15 22 -12 70 -15 222
-15 106 0 195 4 198 9 4 5 25 12 49 16 23 3 51 10 62 15 11 4 47 18 80 31 33
12 67 28 76 36 8 7 23 13 32 13 9 0 17 5 17 10 0 6 8 14 18 18 21 8 132 103
166 141 11 13 36 38 54 54 17 17 32 36 32 43 0 7 14 33 30 57 17 25 30 52 30
60 0 8 7 20 15 27 8 7 15 23 15 37 0 13 7 26 15 29 10 4 15 20 15 44 0 24 5
40 15 43 11 5 13 17 8 55 -4 36 -1 59 11 82 19 39 22 151 5 199 -23 66 -58 63
716 62 530 -1 702 -4 713 -14 12 -9 13 -29 9 -97 -8 -114 15 -364 34 -376 5
-3 9 -20 9 -38 0 -19 7 -39 15 -46 8 -7 15 -18 15 -25 0 -6 13 -30 29 -52 16
-22 32 -49 35 -61 16 -50 243 -257 304 -276 12 -4 22 -11 22 -16 0 -8 48 -20
82 -21 9 0 22 -7 29 -15 6 -8 22 -14 35 -14 13 0 41 -7 62 -15 31 -13 74 -15
228 -12 189 4 274 15 303 41 9 8 32 17 51 21 19 4 54 18 77 31 23 13 49 24 57
24 9 0 16 4 16 9 0 6 11 16 24 23 28 16 114 83 173 135 24 21 73 80 109 131
37 50 71 92 75 92 5 0 9 11 9 24 0 13 6 29 14 36 8 6 12 18 9 26 -3 8 -1 20 4
27 5 6 15 32 22 57 7 25 19 58 27 73 8 16 14 42 14 57 0 16 7 55 15 87 8 31
15 85 15 119 0 34 -7 81 -15 104 -8 23 -15 61 -15 84 0 22 -7 49 -15 59 -7 11
-17 36 -20 58 -4 21 -11 41 -16 45 -5 3 -9 16 -9 29 0 12 -7 25 -15 29 -8 3
-15 15 -15 26 0 11 -7 23 -15 26 -8 4 -15 10 -15 14 0 14 -184 195 -210 207
-123 53 -203 83 -226 83 -12 0 -35 7 -51 15 -15 8 -40 17 -55 20 -23 4 -28 11
-28 34 0 16 7 34 15 41 9 7 15 29 15 51 0 22 5 39 10 39 6 0 10 11 10 24 0 14
5 28 10 31 6 3 10 15 10 26 0 27 30 118 41 125 5 3 9 18 9 33 0 16 7 34 15 41
8 7 15 24 15 39 0 14 7 35 15 45 8 11 15 32 15 47 0 14 7 32 15 39 8 7 15 27
15 45 0 18 7 38 15 45 8 7 15 26 15 44 -1 47 5 79 18 103 7 12 12 32 12 45 0
13 7 36 15 52 8 15 15 41 15 57 0 17 7 46 16 67 13 29 16 76 17 227 1 165 -1
194 -16 215 -9 13 -17 34 -17 45 0 12 -9 40 -20 63 -11 22 -20 48 -20 57 0 9
-7 23 -15 31 -8 9 -15 24 -15 35 0 10 -4 19 -10 19 -5 0 -10 7 -10 15 0 29
-172 195 -264 256 -49 33 -95 59 -102 59 -6 0 -17 7 -24 15 -7 8 -23 15 -35
15 -12 0 -28 7 -35 15 -7 8 -27 15 -46 15 -18 0 -36 5 -39 10 -3 6 -19 10 -34
10 -74 0 -80 60 -9 98 24 12 49 22 57 22 7 0 29 14 48 30 18 17 39 30 46 30
17 0 227 213 227 229 0 7 14 30 30 51 17 21 30 41 30 45 0 7 30 75 51 117 5
10 9 26 9 36 0 10 7 27 15 38 8 10 15 31 15 45 0 14 7 34 15 45 9 12 14 44 15
92 0 52 4 78 15 88 22 23 22 720 0 750 -9 12 -14 44 -15 90 0 51 -4 75 -15 84
-8 7 -15 27 -15 44 0 17 -7 40 -15 50 -8 11 -15 32 -15 47 0 14 -6 32 -14 38
-7 6 -16 26 -20 44 -5 28 -17 57 -47 119 -5 10 -9 24 -9 33 0 15 -77 134 -105
162 -8 8 -15 19 -15 24 0 5 -21 34 -47 64 -27 30 -68 79 -93 109 -25 30 -50
55 -57 55 -6 1 -13 5 -15 9 -4 10 -119 108 -164 139 -40 29 -279 149 -310 157
-13 4 -24 11 -24 16 0 6 -13 10 -29 10 -16 0 -34 7 -41 15 -7 8 -28 15 -47 15
-22 0 -36 6 -40 16 -4 12 -14 15 -42 10 -23 -3 -47 0 -65 9 -16 9 -37 13 -48
10 -10 -4 -62 0 -116 9 -130 20 -1210 21 -1312 1z m1422 -310 c46 -9 102 -20
126 -24 24 -4 48 -13 54 -19 7 -7 19 -12 27 -12 9 0 29 -7 45 -15 15 -8 37
-15 47 -15 10 0 20 -4 24 -10 3 -5 34 -23 70 -41 35 -17 72 -40 81 -50 9 -10
22 -19 29 -19 6 0 27 -15 46 -33 19 -19 49 -44 67 -56 18 -13 57 -53 87 -89
29 -37 63 -78 74 -92 58 -69 93 -125 127 -196 20 -44 40 -80 45 -82 5 -2 9
-16 9 -30 0 -15 7 -36 15 -46 8 -11 15 -34 15 -50 0 -17 7 -40 15 -50 8 -11
15 -39 15 -64 0 -24 7 -65 16 -92 14 -42 15 -98 12 -388 -2 -238 -7 -344 -15
-353 -6 -8 -13 -34 -16 -57 -2 -24 -9 -48 -16 -55 -6 -6 -11 -23 -11 -38 0
-15 -7 -32 -15 -39 -8 -7 -15 -23 -15 -35 0 -12 -7 -28 -15 -35 -8 -7 -15 -23
-15 -36 0 -13 -3 -24 -7 -24 -5 0 -20 -21 -35 -48 -26 -44 -130 -162 -144
-162 -3 0 -23 -13 -44 -30 -21 -16 -45 -30 -53 -30 -8 0 -20 -7 -27 -15 -7 -8
-25 -15 -40 -15 -16 0 -30 -7 -34 -15 -3 -8 -17 -15 -31 -15 -14 0 -40 -8 -58
-17 -30 -17 -108 -18 -1242 -18 -1136 0 -1212 1 -1235 18 -13 9 -39 17 -56 17
-17 0 -37 7 -44 15 -7 8 -25 15 -40 15 -15 0 -33 7 -40 15 -7 8 -19 15 -26 15
-46 0 -219 165 -267 253 -15 29 -32 56 -38 61 -5 6 -9 20 -9 32 0 12 -7 24
-15 28 -8 3 -15 16 -15 28 -1 13 -7 34 -15 48 -8 14 -14 41 -15 61 0 19 -6 41
-12 47 -10 10 -13 105 -15 399 -1 355 0 391 18 446 10 33 19 72 19 88 0 15 5
31 10 34 6 3 10 17 10 29 0 13 7 29 15 36 8 7 15 25 15 40 0 15 7 33 15 40 8
7 15 21 15 32 0 10 7 21 15 24 8 4 15 15 15 26 0 25 63 131 106 178 18 19 46
54 62 76 17 23 49 57 72 75 23 19 65 55 93 81 29 26 57 48 63 48 6 0 17 7 24
15 7 8 21 15 32 15 10 0 21 7 24 15 4 8 17 15 29 15 13 0 26 4 29 9 8 12 84
51 100 51 7 0 19 7 26 15 7 8 22 15 34 15 11 0 30 7 40 15 11 8 34 15 50 15
17 0 51 7 76 16 25 9 72 19 105 23 33 4 369 6 747 4 574 -2 700 -5 770 -18z
m-2328 -5230 c15 -8 37 -15 47 -15 17 0 74 -21 109 -41 8 -4 35 -19 59 -31 24
-13 58 -42 75 -64 17 -23 40 -45 50 -50 11 -5 24 -18 30 -29 6 -11 15 -23 19
-26 10 -7 30 -41 46 -76 5 -11 15 -24 20 -28 6 -3 11 -15 11 -26 0 -11 8 -32
18 -46 24 -38 23 -311 -3 -369 -69 -159 -125 -236 -233 -324 -23 -19 -55 -39
-71 -46 -16 -7 -32 -17 -35 -23 -4 -6 -18 -11 -30 -11 -13 0 -29 -7 -36 -15
-7 -9 -30 -15 -54 -15 -22 0 -50 -7 -60 -15 -27 -20 -161 -20 -200 0 -15 8
-41 15 -56 15 -15 0 -33 7 -40 15 -7 8 -20 15 -30 15 -10 0 -23 7 -30 15 -7 9
-19 14 -26 11 -7 -3 -22 4 -35 15 -12 10 -26 19 -30 19 -4 0 -43 36 -87 80
-80 81 -132 162 -132 205 0 12 -7 28 -15 35 -10 8 -15 30 -15 61 0 26 -4 51
-10 54 -15 9 -12 146 5 175 7 14 11 37 8 52 -3 17 1 37 11 53 9 13 16 33 16
44 0 22 29 79 62 121 42 56 153 160 169 160 9 0 19 7 23 15 3 8 16 15 30 15
13 0 26 7 30 15 3 8 14 15 24 15 11 0 25 7 32 15 7 8 29 15 50 15 21 0 51 7
66 15 19 10 57 15 109 15 52 0 90 -5 109 -15z"/>
<path d="M5105 6545 l-40 -40 0 -243 c0 -220 2 -245 18 -256 9 -7 17 -17 17
-22 0 -5 18 -17 39 -26 52 -25 388 -27 397 -3 4 8 12 15 18 15 7 0 24 12 38
28 42 45 52 177 32 428 -5 63 -9 75 -42 113 l-37 42 -200 2 -200 2 -40 -40z"/>
<path d="M6765 6583 c-11 -2 -37 -18 -58 -36 l-38 -32 -3 -238 -3 -237 26 -34
c48 -62 64 -66 251 -66 137 0 170 3 180 15 7 8 18 15 24 15 14 0 69 56 85 87
18 35 14 353 -5 419 -21 73 -58 103 -127 105 -130 4 -314 5 -332 2z"/>
<path d="M3055 6681 c-4 -8 -284 -11 -924 -11 l-918 0 -19 -22 c-43 -48 -54
-77 -54 -135 0 -48 4 -62 23 -78 52 -47 18 -45 1013 -45 868 0 947 1 972 17
65 40 72 52 72 121 0 56 -4 69 -30 102 -20 25 -40 39 -62 43 -18 3 -40 8 -49
12 -10 3 -20 2 -24 -4z"/>
<path d="M256 5841 c-17 -9 -41 -37 -54 -62 -24 -44 -24 -45 -7 -99 9 -30 20
-62 24 -70 21 -41 29 -41 814 -40 414 0 922 3 1130 5 377 3 379 4 403 26 21
20 24 31 24 98 -1 89 -12 114 -65 141 -39 20 -58 20 -1140 19 -1024 0 -1102
-2 -1129 -18z"/>
</g>
</svg>
